<svg preserveAspectRatio="none" width="100%" height="100%" overflow="visible" style="display: block;" viewBox="0 0 13.499 13.499" fill="none" xmlns="http://www.w3.org/2000/svg">
<path id="Union" d="M6.75 0C7.11797 0.000261067 7.41699 0.298963 7.41699 0.666992V6.08203L12.832 6.08301C13.2002 6.08301 13.499 6.38181 13.499 6.75C13.4988 7.11797 13.2001 7.41699 12.832 7.41699L7.41699 7.41602V12.833C7.41664 13.2007 7.11775 13.4988 6.75 13.499C6.38203 13.499 6.08336 13.2009 6.08301 12.833V7.41602H0.666016C0.298128 7.41566 -3.2169e-08 7.11699 0 6.74902C0.000262603 6.38128 0.29829 6.08239 0.666016 6.08203H6.08301V0.666992C6.08301 0.298802 6.38181 1.60941e-08 6.75 0Z" fill="var(--fill-0, #939393)"/>
</svg>
