<svg preserveAspectRatio="none" width="100%" height="100%" overflow="visible" style="display: block;" viewBox="0 0 24 24" fill="none" xmlns="http://www.w3.org/2000/svg">
<g id="Build/city">
<g id="Group">
<g id="&#231;&#159;&#169;&#229;&#189;&#162;">
</g>
<path id="Path 206" d="M8 21H21" stroke="var(--stroke-0, #FF7800)" stroke-width="2" stroke-linecap="round" stroke-linejoin="round"/>
<rect id="Rectangle" x="10" y="6" width="2" height="2" rx="0.4" fill="var(--fill-0, #FF7800)"/>
<rect id="Rectangle_2" x="14" y="6" width="2" height="2" rx="0.4" fill="var(--fill-0, #FF7800)"/>
<rect id="Rectangle_3" x="10" y="9.5" width="2" height="2" rx="0.4" fill="var(--fill-0, #FF7800)"/>
<rect id="Rectangle_4" x="14" y="9.5" width="2" height="2" rx="0.4" fill="var(--fill-0, #FF7800)"/>
<rect id="Rectangle_5" x="14" y="13" width="2" height="2" rx="0.4" fill="var(--fill-0, #FF7800)"/>
<rect id="Rectangle_6" x="14" y="16.5" width="2" height="2" rx="0.4" fill="var(--fill-0, #FF7800)"/>
</g>
<path id="Vector 1204" d="M19 21V3H7V10.5789" stroke="var(--stroke-0, #FF7800)" stroke-width="2" stroke-linecap="round" stroke-linejoin="round"/>
<path id="Union" d="M6 12C5.44772 12 5 12.4477 5 13V15H3C2.44772 15 2 15.4477 2 16C2 16.5523 2.44772 17 3 17H5V19C5 19.5523 5.44772 20 6 20C6.55228 20 7 19.5523 7 19V17H9C9.55228 17 10 16.5523 10 16C10 15.4477 9.55228 15 9 15H7V13C7 12.4477 6.55228 12 6 12Z" fill="var(--fill-0, #FF7800)"/>
</g>
</svg>
