<svg width="24" height="24" viewBox="0 0 24 24" fill="none" xmlns="http://www.w3.org/2000/svg">
<rect width="24" height="24" fill="#ABABAB"/>
<g id="&#229;&#177;&#149;&#233;&#150;&#139;&#229;&#176;&#141;&#232;&#169;&#177;&#231;&#180;&#128;&#233;&#140;&#132;">
<rect width="393" height="812" transform="translate(-177 -342)" fill="#292929" fill-opacity="0.6"/>
<g id="PC side menu">
<rect width="330" height="812" transform="translate(-177 -342)" fill="#FCFCFC"/>
<g id="ConversationHistoryDrawer">
<g id="Frame 427320441">
<g id="Frame 427320910">
<rect x="-161" y="-234" width="298" height="288" rx="8" fill="#FFF5EC"/>
<g id="Frame 427320909">
<g id="Frame 427320914">
<g id="Frame 427320913">
<g id="Container">
<rect x="-8" y="-18" width="133" height="60" rx="8" fill="white"/>
<g id="Icon and Text">
<g id="icon-About Me-List">
<path id="&#226;&#134;&#177;Color" fill-rule="evenodd" clip-rule="evenodd" d="M24.0001 12C24.0001 18.627 18.6271 24 12.0001 24C5.37312 24 0.00012207 18.627 0.00012207 12C0.00012207 5.373 5.37312 0 12.0001 0C18.6271 0 24.0001 5.373 24.0001 12Z" fill="#FFC31B"/>
<path id="Fill 4" fill-rule="evenodd" clip-rule="evenodd" d="M23.5418 15.2499L14.2608 5.98193L12.6278 8.16293L10.8778 15.3709L5.88281 17.1529L12.6968 23.9649C17.8858 23.6649 22.1838 20.0799 23.5418 15.2499Z" fill="#FFAF1B"/>
<path id="Fill 6" fill-rule="evenodd" clip-rule="evenodd" d="M18.1818 16.1726C18.1278 15.8616 18.0508 15.5556 17.9518 15.2556C17.8538 14.9616 17.7348 14.6746 17.5958 14.3976C17.4568 14.1226 17.2988 13.8596 17.1228 13.6076C16.9478 13.3576 16.7548 13.1196 16.5458 12.8976C16.3368 12.6746 16.1118 12.4676 15.8728 12.2776C15.6338 12.0866 15.3808 11.9136 15.1168 11.7596C14.8498 11.6046 14.5728 11.4696 14.2868 11.3546C14.2388 11.3356 14.1878 11.3256 14.1398 11.3086C14.9278 10.6656 15.4418 9.69861 15.4418 8.60261C15.4418 6.66761 13.8738 5.09961 11.9388 5.09961C10.0038 5.09961 8.43482 6.66761 8.43482 8.60261C8.43482 9.69861 8.94882 10.6656 9.73782 11.3086C9.60082 11.3596 9.46282 11.4066 9.32982 11.4676C8.53882 11.8266 7.82582 12.3536 7.24582 12.9996C6.66082 13.6516 6.21382 14.4216 5.93882 15.2516C5.85082 15.5156 5.78082 15.7846 5.72882 16.0576C5.68982 16.2566 5.63282 16.4556 5.63482 16.6596C5.63682 16.8816 5.72182 17.0126 5.88282 17.1526C5.88282 17.1526 6.00982 17.2556 6.23882 17.2676H17.6298C17.8628 17.2796 18.0558 17.0966 18.0558 17.0966C18.1968 16.9616 18.2378 16.7906 18.2368 16.6126C18.2358 16.4656 18.2058 16.3146 18.1818 16.1726Z" fill="white"/>
</g>
</g>
</g>
</g>
</g>
</g>
</g>
</g>
</g>
</g>
</g>
</svg>
