<svg width="24" height="24" viewBox="0 0 24 24" fill="none" xmlns="http://www.w3.org/2000/svg">
<rect width="24" height="24" fill="#ABABAB"/>
<g id="&#229;&#177;&#149;&#233;&#150;&#139;&#229;&#176;&#141;&#232;&#169;&#177;&#231;&#180;&#128;&#233;&#140;&#132;">
<rect width="393" height="812" transform="translate(-177 -274)" fill="#292929" fill-opacity="0.6"/>
<g id="PC side menu">
<rect width="330" height="812" transform="translate(-177 -274)" fill="#FCFCFC"/>
<g id="ConversationHistoryDrawer">
<g id="Frame 427320441">
<g id="Frame 427320910">
<rect x="-161" y="-166" width="298" height="288" rx="8" fill="#FFF5EC"/>
<g id="Frame 427320909">
<g id="Frame 427320914">
<g id="Frame 427320912">
<g id="Container">
<rect x="-8" y="-18" width="133" height="60" rx="8" fill="white"/>
<g id="Icon and Text">
<g id="icon-About Me-List">
<path id="&#226;&#134;&#177;Color" fill-rule="evenodd" clip-rule="evenodd" d="M24.0001 12.0005C24.0001 18.6275 18.6271 24.0005 12.0001 24.0005C5.37312 24.0005 0.00012207 18.6275 0.00012207 12.0005C0.00012207 5.37249 5.37312 0.000488281 12.0001 0.000488281C18.6271 0.000488281 24.0001 5.37249 24.0001 12.0005Z" fill="#FF9100"/>
<path id="Fill 4" fill-rule="evenodd" clip-rule="evenodd" d="M23.9483 13.0373L16.5233 5.61133L16.4823 5.62233L13.0193 7.86233L11.5823 9.42533L11.8013 14.1753L12.0003 16.9873L9.26928 18.3003C9.26928 18.3003 9.25428 18.3003 9.23828 18.2993L14.6373 23.6993C19.6673 22.5703 23.4973 18.2903 23.9483 13.0373Z" fill="#FF7800"/>
<path id="Fill 6" fill-rule="evenodd" clip-rule="evenodd" d="M16.9632 9.20562C16.9572 9.25862 16.9502 9.30962 16.9432 9.36262C16.9402 9.38562 16.9362 9.40862 16.9332 9.43162C16.8842 9.77662 16.7832 10.1166 16.6292 10.4336C16.4872 10.7256 16.2992 10.9986 16.0662 11.2316C16.0442 11.2536 16.0132 11.2656 15.9902 11.2856C16.0392 10.9146 16.0582 10.5406 16.0582 10.1656V9.08762V8.63062H16.7082C16.9992 8.63062 16.9842 9.01562 16.9632 9.20562ZM7.93527 11.1367C7.70127 10.9027 7.51327 10.6297 7.37127 10.3377C7.21727 10.0207 7.11627 9.68167 7.06727 9.33567C7.06427 9.31267 7.06127 9.29067 7.05727 9.26767C7.05027 9.21567 7.04327 9.16267 7.03727 9.11067C7.01627 8.92067 7.00127 8.53467 7.29327 8.53467H7.92627C7.92827 9.68567 7.93127 10.8567 7.93827 10.8567C7.94227 10.9637 7.96727 11.0627 7.97827 11.1677C7.96527 11.1557 7.94727 11.1487 7.93527 11.1367ZM17.7629 7.76167H16.0589V6.86067V6.69167H16.1479C16.4719 6.69167 16.7369 6.42667 16.7369 6.10267C16.7369 5.77867 16.4719 5.51367 16.1479 5.51367H7.99793C7.67293 5.51367 7.40893 5.77867 7.40893 6.10267C7.40893 6.40067 7.63693 6.64067 7.92493 6.67767C7.92493 6.91967 7.92593 7.26567 7.92593 7.66567H6.23893C5.80293 7.66567 5.82493 8.27067 5.85693 8.56967C5.86493 8.65267 5.87593 8.73467 5.88693 8.81667C5.89193 8.85167 5.89693 8.88867 5.90193 8.92467C5.97593 9.46767 6.12693 10.0007 6.35693 10.4987C6.56993 10.9577 6.85193 11.3877 7.20093 11.7547C7.52593 12.0967 7.91193 12.3827 8.34293 12.5777C8.35793 12.5837 8.37293 12.5877 8.38793 12.5927C8.96793 13.7567 10.0619 14.6067 11.3709 14.8147V16.6407H9.75593C9.41993 16.6407 9.14493 16.9157 9.14493 17.2517V17.8747C9.14493 18.2117 9.41993 18.4867 9.75593 18.4867H14.3579C14.6939 18.4867 14.9689 18.2117 14.9689 17.8747V17.2517C14.9689 16.9157 14.6939 16.6407 14.3579 16.6407H12.6739V14.8007C12.9539 14.7517 13.2299 14.6817 13.4929 14.5737C13.9559 14.3857 14.3809 14.1097 14.7439 13.7667C15.0649 13.4637 15.3259 13.1017 15.5349 12.7147C15.5769 12.7017 15.6189 12.6907 15.6589 12.6737C16.0899 12.4777 16.4749 12.1907 16.8009 11.8497C17.1509 11.4817 17.4319 11.0537 17.6449 10.5947C17.8759 10.0967 18.0259 9.56267 18.0999 9.01967L18.1149 8.91167C18.1259 8.82967 18.1369 8.74767 18.1459 8.66567C18.1769 8.36567 18.1989 7.76167 17.7629 7.76167Z" fill="white"/>
</g>
</g>
</g>
</g>
</g>
</g>
</g>
</g>
</g>
</g>
</g>
</svg>
