<svg preserveAspectRatio="none" width="100%" height="100%" overflow="visible" style="display: block;" viewBox="0 0 20 20" fill="none" xmlns="http://www.w3.org/2000/svg">
<path id="Union" d="M14.0029 0C15.1952 8.70613e-05 16.3407 0.469524 17.1865 1.30762C18.0326 2.14601 18.5097 3.28501 18.5098 4.47461V10.2939H18.5615C18.94 10.2939 19.3048 10.4431 19.5752 10.7109C19.8459 10.9792 20 11.3451 20 11.7285V15.5244C20 16.7142 19.523 17.8539 18.6768 18.6924C17.8309 19.5305 16.6855 19.9999 15.4932 20H4.50684C3.31453 19.9999 2.16912 19.5305 1.32324 18.6924C0.47702 17.8539 0 16.7142 0 15.5244V11.7285C9.27701e-06 11.3451 0.154059 10.9792 0.424805 10.7109C0.695227 10.4431 1.06003 10.2939 1.43848 10.2939H1.48145V4.47461C1.48152 3.28491 1.95949 2.14603 2.80566 1.30762C3.65159 0.469511 4.79692 0 5.98926 0H14.0029ZM2 15.5244C2 16.1778 2.26229 16.8066 2.73145 17.2715C3.20085 17.7365 3.83911 17.9999 4.50684 18H15.4932C16.1609 17.9999 16.7992 17.7365 17.2686 17.2715C17.7377 16.8066 18 16.1778 18 15.5244V12.2939H15.9043C15.7907 12.8832 15.5009 13.4289 15.0684 13.8574C14.5003 14.4203 13.732 14.7354 12.9326 14.7354H7.05859C6.25919 14.7354 5.49091 14.4203 4.92285 13.8574C4.49035 13.4289 4.20047 12.8832 4.08691 12.2939H2V15.5244ZM5.98926 2C5.32139 2 4.68236 2.26335 4.21289 2.72852C3.74393 3.19328 3.48152 3.82142 3.48145 4.47461V10.2939H4.59473C4.97319 10.2939 5.33797 10.4431 5.6084 10.7109C5.87914 10.9792 6.03319 11.3451 6.0332 11.7285C6.0332 11.9925 6.1388 12.248 6.33008 12.4375C6.52166 12.6273 6.78376 12.7354 7.05859 12.7354H12.9326C13.2075 12.7354 13.4696 12.6273 13.6611 12.4375C13.8524 12.248 13.958 11.9925 13.958 11.7285C13.958 11.3451 14.1121 10.9792 14.3828 10.7109C14.6532 10.4431 15.018 10.2939 15.3965 10.2939H16.5098V4.47461C16.5097 3.82134 16.2474 3.1933 15.7783 2.72852C15.3089 2.26343 14.6707 2.00009 14.0029 2H5.98926ZM13.5029 7.08008C14.055 7.08028 14.5028 7.52803 14.5029 8.08008C14.5029 8.63224 14.055 9.07988 13.5029 9.08008H6.48828C5.93607 9.08 5.48828 8.63231 5.48828 8.08008C5.48841 7.52796 5.93615 7.08016 6.48828 7.08008H13.5029ZM13.5029 3.60547C14.055 3.60567 14.5029 4.05331 14.5029 4.60547C14.5029 5.15763 14.055 5.60527 13.5029 5.60547H6.48828C5.93607 5.60539 5.48828 5.1577 5.48828 4.60547C5.48828 4.05323 5.93607 3.60555 6.48828 3.60547H13.5029Z" fill="var(--fill-0, #FF7800)"/>
</svg>
