<svg preserveAspectRatio="none" width="100%" height="100%" overflow="visible" style="display: block;" viewBox="0 0 13.0439 13.0439" fill="none" xmlns="http://www.w3.org/2000/svg">
<path id="Union" d="M6 0C9.31371 0 12 2.68629 12 6C12 7.41672 11.5077 8.71768 10.6865 9.74414L12.8486 11.9062C13.1089 12.1666 13.109 12.5883 12.8486 12.8486C12.5883 13.109 12.1666 13.1089 11.9062 12.8486L9.74414 10.6865C8.71768 11.5077 7.41672 12 6 12C2.68629 12 0 9.31371 0 6C0 2.68629 2.68629 0 6 0ZM6 1.33301C3.42267 1.33301 1.33301 3.42267 1.33301 6C1.33301 8.57733 3.42267 10.667 6 10.667C8.57733 10.667 10.667 8.57733 10.667 6C10.667 3.42267 8.57733 1.33301 6 1.33301Z" fill="var(--fill-0, #A9A9A9)"/>
</svg>
