<svg width="24" height="24" viewBox="0 0 24 24" fill="none" xmlns="http://www.w3.org/2000/svg">
<rect width="24" height="24" fill="#ABABAB"/>
<g id="&#229;&#177;&#149;&#233;&#150;&#139;&#229;&#176;&#141;&#232;&#169;&#177;&#231;&#180;&#128;&#233;&#140;&#132;">
<rect width="393" height="812" transform="translate(-36 -274)" fill="#292929" fill-opacity="0.6"/>
<g id="PC side menu">
<rect width="330" height="812" transform="translate(-36 -274)" fill="#FCFCFC"/>
<g id="ConversationHistoryDrawer">
<g id="Frame 427320441">
<g id="Frame 427320910">
<rect x="-20" y="-166" width="298" height="288" rx="8" fill="#FFF5EC"/>
<g id="Frame 427320909">
<g id="Frame 427320914">
<g id="Frame 427320912">
<g id="Container">
<rect x="-8" y="-18" width="133" height="60" rx="8" fill="white"/>
<g id="Icon and Text">
<g id="icon-About Me-List">
<path id="&#226;&#134;&#177;Color" fill-rule="evenodd" clip-rule="evenodd" d="M12.0002 0.000488281C5.37324 0.000488281 0.000244141 5.37249 0.000244141 12.0005C0.000244141 18.6275 5.37324 24.0005 12.0002 24.0005C12.6652 24.0005 13.3122 23.9325 13.9482 23.8275C18.0872 23.1505 21.5162 20.3675 23.0822 16.6035C23.6712 15.1855 24.0002 13.6315 24.0002 12.0005C24.0002 5.37249 18.6272 0.000488281 12.0002 0.000488281Z" fill="#4E91FF"/>
<path id="Vector" d="M6.49927 19L12.4993 24C18.4994 23.5 22.9993 19.5 23.9993 13.5L15.4994 7L13.4993 5.5L6.99927 14.5L6.49927 19Z" fill="#2E70DC"/>
<g id="Pen">
<path id="Vector_2" d="M12.3157 6.90047L6.94727 14.2896L8.41593 15.3566L13.7844 7.96752L12.3157 6.90047Z" fill="white"/>
<path id="Vector_3" d="M6.56875 14.8633L6.00422 18.6463C5.96032 18.9418 6.26757 19.1644 6.53459 19.03L9.98076 17.2974C9.98903 17.2932 9.99711 17.2886 10.0048 17.2837L6.5862 14.7998C6.57775 14.82 6.57206 14.8415 6.56875 14.8633Z" fill="white"/>
<path id="Vector_4" d="M14.2884 8.33455L8.91992 15.7236L10.3886 16.7907L15.7571 9.4016L14.2884 8.33455Z" fill="white"/>
<path id="Vector_5" d="M16.6211 6.52332L14.7853 5.18966C14.3418 4.86736 13.7209 4.96579 13.3986 5.40931L12.6816 6.39605L16.1238 8.8968L16.8407 7.91005C17.163 7.46654 17.0646 6.84562 16.6211 6.52332Z" fill="white"/>
</g>
</g>
</g>
</g>
</g>
</g>
</g>
</g>
</g>
</g>
</g>
</g>
</svg>
