<svg width="24" height="24" viewBox="0 0 24 24" fill="none" xmlns="http://www.w3.org/2000/svg">
<rect width="24" height="24" fill="#ABABAB"/>
<g id="&#229;&#177;&#149;&#233;&#150;&#139;&#229;&#176;&#141;&#232;&#169;&#177;&#231;&#180;&#128;&#233;&#140;&#132;">
<rect width="393" height="812" transform="translate(-36 -206)" fill="#292929" fill-opacity="0.6"/>
<g id="PC side menu">
<rect width="330" height="812" transform="translate(-36 -206)" fill="#FCFCFC"/>
<g id="ConversationHistoryDrawer">
<g id="Frame 427320441">
<g id="Frame 427320910">
<rect x="-20" y="-98" width="298" height="288" rx="8" fill="#FFF5EC"/>
<g id="Frame 427320909">
<g id="Frame 427320914">
<g id="Frame 427320911">
<g id="Container">
<rect x="-8" y="-18" width="133" height="60" rx="8" fill="white"/>
<g id="Icon and Text">
<g id="icon-About Me-List">
<path id="&#226;&#134;&#177;Color" fill-rule="evenodd" clip-rule="evenodd" d="M12.0002 0.000488281C5.37324 0.000488281 0.000244141 5.37249 0.000244141 12.0005C0.000244141 18.6275 5.37324 24.0005 12.0002 24.0005C12.6652 24.0005 13.3122 23.9325 13.9482 23.8275C18.0872 23.1505 21.5162 20.3675 23.0822 16.6035C23.6712 15.1855 24.0002 13.6315 24.0002 12.0005C24.0002 5.37249 18.6272 0.000488281 12.0002 0.000488281Z" fill="#39C8D0"/>
<path id="Fill 4" fill-rule="evenodd" clip-rule="evenodd" d="M17.5004 8.2081C17.0974 8.3561 14.7974 9.2011 14.5984 9.1731C14.3794 9.1421 9.81639 7.8291 9.81639 7.8291L8.42539 9.1421L6.33239 9.8951L5.27539 10.7381L6.29839 11.7801L6.83439 13.3071L7.94139 15.6101C7.94139 15.6101 7.78439 15.6301 7.54239 15.6591L15.3804 23.4971C18.8704 22.4751 21.7024 19.9231 23.0824 16.6031C23.3684 15.9151 23.5894 15.1961 23.7444 14.4521L17.5004 8.2081Z" fill="#29B3C5"/>
<path id="Combined Shape" d="M12.1714 13.5299C12.2644 13.6727 12.4225 13.7575 12.5903 13.7575C12.6033 13.7575 12.6164 13.7565 12.6294 13.7555C12.8123 13.7415 12.9724 13.6285 13.0474 13.4616L13.7788 11.8258H18.3374C18.2434 12.2638 18.0673 12.8925 17.7495 13.4294C17.7405 13.4423 17.7282 13.4496 17.7192 13.4626C17.1762 14.4995 16.4262 15.4544 15.7212 16.1344C15.7212 16.1344 14.4493 17.4534 13.1304 18.0505C13.1304 18.0505 12.3197 18.395 11.8696 18.3952C11.4196 18.3952 10.6079 18.0505 10.6079 18.0505C9.289 17.4534 8.01708 16.1344 8.01708 16.1344C7.31913 15.4615 6.56883 14.5187 6.02587 13.4928C6.01987 13.4828 6.01235 13.4755 6.00536 13.4645C5.62544 12.8476 5.44685 12.2039 5.36083 11.7389H9.27294C9.47194 11.7389 9.65094 11.6211 9.73094 11.4391L10.1675 10.444L12.1714 13.5299ZM13.9956 7.10611C13.9956 7.10611 15.4865 6.68184 16.9624 7.71744C16.9624 7.71744 18.3762 8.61322 18.4702 10.5602C18.4751 10.6471 18.4576 10.737 18.4546 10.8258H13.4565C13.2596 10.8259 13.0805 10.9418 12.9995 11.1217L12.5112 12.2135L10.5005 9.12076C10.4005 8.9659 10.2254 8.88618 10.0405 8.89518C9.85762 8.91026 9.69749 9.02411 9.62352 9.19303L8.94677 10.7389H5.27489C5.27489 10.679 5.26804 10.6191 5.27001 10.5602C5.36501 8.61322 6.77782 7.71744 6.77782 7.71744C8.24732 6.68617 9.7327 7.10248 9.74559 7.10611C11.2647 7.48215 11.8675 8.48283 11.8706 8.48795C11.8706 8.48795 12.4717 7.48315 13.9956 7.10611Z" fill="white"/>
</g>
</g>
</g>
</g>
</g>
</g>
</g>
</g>
</g>
</g>
</g>
</svg>
