<svg width="24" height="24" viewBox="0 0 24 24" fill="none" xmlns="http://www.w3.org/2000/svg">
<rect width="24" height="24" fill="#ABABAB"/>
<g id="&#229;&#177;&#149;&#233;&#150;&#139;&#229;&#176;&#141;&#232;&#169;&#177;&#231;&#180;&#128;&#233;&#140;&#132;">
<rect width="393" height="812" transform="translate(-36 -342)" fill="#292929" fill-opacity="0.6"/>
<g id="PC side menu">
<rect width="330" height="812" transform="translate(-36 -342)" fill="#FCFCFC"/>
<g id="ConversationHistoryDrawer">
<g id="Frame 427320441">
<g id="Frame 427320910">
<rect x="-20" y="-234" width="298" height="288" rx="8" fill="#FFF5EC"/>
<g id="Frame 427320909">
<g id="Frame 427320914">
<g id="Frame 427320913">
<g id="Container">
<rect x="-8" y="-18" width="133" height="60" rx="8" fill="white"/>
<g id="Icon and Text">
<g id="icon-About Me-List">
<path id="&#226;&#134;&#177;Color" fill-rule="evenodd" clip-rule="evenodd" d="M24.0002 12.0005C24.0002 18.6275 18.6272 24.0005 12.0002 24.0005C5.37324 24.0005 0.000244141 18.6275 0.000244141 12.0005C0.000244141 5.37249 5.37324 0.000488281 12.0002 0.000488281C18.6272 0.000488281 24.0002 5.37249 24.0002 12.0005Z" fill="#92CF53"/>
<path id="Fill 4" fill-rule="evenodd" clip-rule="evenodd" d="M13.53 10.0843H10.465V8.70429C10.465 7.59729 11.076 7.01929 11.998 7.01929C12.919 7.01929 13.53 7.59829 13.53 8.70429V10.0843ZM11.8914 15.7543C11.0004 15.7543 10.2794 15.0313 10.2794 14.1413C10.2794 13.2513 11.0004 12.5283 11.8914 12.5283C12.7814 12.5283 13.5034 13.2513 13.5034 14.1413C13.5034 15.0313 12.7814 15.7543 11.8914 15.7543ZM16.4439 10.0844H15.0649V9.01135C15.0649 6.79035 14.0419 5.48535 11.9989 5.48535C9.95589 5.48535 8.93389 6.79135 8.93389 9.01135V10.0844H7.40189C6.97789 10.0844 6.63489 10.5804 6.63489 11.0034V16.9814C6.63489 17.4024 6.96289 17.8544 7.36389 17.9824L8.28089 18.2784C8.68189 18.4084 9.35589 18.5144 9.77689 18.5144H14.2219C14.6429 18.5144 15.3169 18.4084 15.7189 18.2784L16.6359 17.9824C17.0369 17.8544 17.3649 17.4024 17.3649 16.9814V11.0034C17.3639 10.5804 16.8669 10.0844 16.4439 10.0844Z" fill="white"/>
<path id="Fill 6" fill-rule="evenodd" clip-rule="evenodd" d="M13.5318 8.70455C13.5318 7.59855 12.9208 7.01855 11.9998 7.01855C11.0778 7.01855 10.4668 7.59755 10.4668 8.70455V10.0846H13.5318V8.70455Z" fill="#7EC540"/>
<path id="Fill 8" fill-rule="evenodd" clip-rule="evenodd" d="M11.8913 15.7543C12.7823 15.7543 13.5033 15.0313 13.5033 14.1413C13.5033 13.2513 12.7823 12.5283 11.8913 12.5283C11.0003 12.5283 10.2793 13.2513 10.2793 14.1413C10.2793 15.0313 11.0003 15.7543 11.8913 15.7543Z" fill="#7EC540"/>
<path id="Fill 10" fill-rule="evenodd" clip-rule="evenodd" d="M14.3171 6.37939L14.2981 6.41539C14.8091 7.01939 15.0651 7.90039 15.0651 9.01139V10.0844H16.4441C16.8671 10.0844 17.3641 10.5804 17.3651 11.0034V16.9824C17.3651 17.4024 17.0371 17.8544 16.6361 17.9834L15.7181 18.2784C15.3171 18.4084 14.6431 18.5144 14.2221 18.5144H9.77713C9.35613 18.5144 8.68213 18.4084 8.28113 18.2784L7.36413 17.9834C7.21413 17.9354 7.08213 17.8324 6.96513 17.7114L6.96313 17.7144L13.1881 23.9404C18.0591 23.4614 22.0741 20.0704 23.4701 15.5314L14.3171 6.37939Z" fill="#7EC540"/>
</g>
</g>
</g>
</g>
</g>
</g>
</g>
</g>
</g>
</g>
</g>
</svg>
