<svg width="24" height="24" viewBox="0 0 24 24" fill="none" xmlns="http://www.w3.org/2000/svg">
<rect width="24" height="24" fill="#ABABAB"/>
<g id="&#229;&#177;&#149;&#233;&#150;&#139;&#229;&#176;&#141;&#232;&#169;&#177;&#231;&#180;&#128;&#233;&#140;&#132;">
<rect width="393" height="812" transform="translate(-177 -206)" fill="#292929" fill-opacity="0.6"/>
<g id="PC side menu">
<rect width="330" height="812" transform="translate(-177 -206)" fill="#FCFCFC"/>
<g id="ConversationHistoryDrawer">
<g id="Frame 427320441">
<g id="Frame 427320910">
<rect x="-161" y="-98" width="298" height="288" rx="8" fill="#FFF5EC"/>
<g id="Frame 427320909">
<g id="Frame 427320914">
<g id="Frame 427320911">
<g id="Container">
<rect x="-8" y="-18" width="133" height="60" rx="8" fill="white"/>
<g id="Icon and Text">
<g id="icon-About Me-List">
<path id="&#226;&#134;&#177;Color" fill-rule="evenodd" clip-rule="evenodd" d="M12.0002 0.000488281C5.37318 0.000488281 0.000183105 5.37249 0.000183105 12.0005C0.000183105 18.6275 5.37318 24.0005 12.0002 24.0005C12.6652 24.0005 13.3122 23.9325 13.9482 23.8275C18.0872 23.1505 21.5162 20.3675 23.0822 16.6035C23.6712 15.1855 24.0002 13.6315 24.0002 12.0005C24.0002 5.37249 18.6272 0.000488281 12.0002 0.000488281Z" fill="#CF7EEB"/>
<path id="Fill 4" fill-rule="evenodd" clip-rule="evenodd" d="M15.5 7C15.097 7.148 13.699 8.528 13.5 8.5C13.281 8.469 8.5 8 8.5 8L10.5 10.5H9.5L6.5 12.5L6 18.5V19H6.5L15.3804 23.4973C18.8704 22.4753 21.7024 19.9233 23.0824 16.6033C23.3684 15.9153 23.5894 15.1963 23.7444 14.4523L15.5 7Z" fill="#B662DD"/>
<path id="Vector 2" d="M17.7268 18.5H15.1106C14.9179 18.5 14.7617 18.3438 14.7617 18.1511V10.7893C14.7617 10.5088 15.076 10.343 15.3075 10.5014L17.9238 12.2915C18.0188 12.3565 18.0757 12.4642 18.0757 12.5794V18.1511C18.0757 18.3438 17.9195 18.5 17.7268 18.5Z" fill="white"/>
<path id="Vector 3" d="M6.73802 18.4346H9.35429C9.54695 18.4346 9.70312 18.2784 9.70312 18.0857V10.7239C9.70312 10.4433 9.38882 10.2775 9.15731 10.436L6.54104 12.226C6.44601 12.2911 6.38919 12.3988 6.38919 12.5139V18.0857C6.38919 18.2784 6.54537 18.4346 6.73802 18.4346Z" fill="white"/>
<path id="Vector 1" d="M13.7142 18.4999H10.7491C10.5564 18.4999 10.4002 18.3437 10.4002 18.1511V8.73253C10.4002 8.53988 10.2441 8.3837 10.0514 8.3837H8.89126C8.59323 8.3837 8.43245 8.03412 8.6264 7.80784L12.0483 3.81563C12.1894 3.65096 12.445 3.65364 12.5827 3.82123L15.862 7.81344C16.049 8.04109 15.8871 8.3837 15.5925 8.3837H14.4119C14.2192 8.3837 14.063 8.53987 14.063 8.73253V18.1511C14.063 18.3437 13.9068 18.4999 13.7142 18.4999Z" fill="white"/>
</g>
</g>
</g>
</g>
</g>
</g>
</g>
</g>
</g>
</g>
</g>
</svg>
