<svg preserveAspectRatio="none" width="100%" height="100%" overflow="visible" style="display: block;" viewBox="0 0 20.76 19.9497" fill="none" xmlns="http://www.w3.org/2000/svg">
<path id="Union" d="M9.43169 0.56558C9.84093 -0.188559 10.9189 -0.188494 11.3282 0.56558L13.8829 5.27456C14.0382 5.56078 14.314 5.76143 14.6329 5.82144L19.878 6.80874C20.7181 6.96686 21.051 7.99698 20.4639 8.62124L16.7979 12.5187C16.5751 12.7556 16.47 13.0811 16.5118 13.4044L17.1983 18.7238C17.3079 19.5755 16.4361 20.2113 15.6641 19.8429L10.8428 17.5431C10.5499 17.4035 10.21 17.4034 9.91704 17.5431L5.09575 19.8429C4.32374 20.2112 3.45201 19.5755 3.56157 18.7238L4.24907 13.4044C4.28562 13.1214 4.20913 12.8369 4.04009 12.6115L3.96294 12.5187L0.295949 8.62124C-0.290937 7.99701 0.0419481 6.96694 0.881887 6.80874L6.12798 5.82144C6.40682 5.76884 6.65255 5.60902 6.81353 5.37808L6.877 5.27456L9.43169 0.56558ZM8.63482 6.22867C8.19381 7.04138 7.40976 7.61549 6.49712 7.78726L2.89458 8.46499L5.419 11.1486C6.05306 11.8226 6.35064 12.7449 6.23247 13.6603L5.76079 17.3097L9.05571 15.7384L9.21392 15.6681C9.96104 15.3619 10.7988 15.3619 11.5459 15.6681L11.7042 15.7384L14.9991 17.3097L14.5274 13.6603C14.4092 12.7449 14.7068 11.8226 15.3409 11.1486L17.8643 8.46499L14.2627 7.78726C13.3501 7.61549 12.5661 7.04139 12.1251 6.22867L10.3799 3.01187L8.63482 6.22867Z" fill="var(--fill-0, #FF7800)"/>
</svg>
