<svg preserveAspectRatio="none" width="100%" height="100%" overflow="visible" style="display: block;" viewBox="0 0 17.3 16.6248" fill="none" xmlns="http://www.w3.org/2000/svg">
<path id="Union" d="M7.85984 0.471379C8.20089 -0.157126 9.09888 -0.157126 9.43992 0.471379L11.5698 4.39521C11.6992 4.63368 11.9282 4.80124 12.1938 4.85126L16.5649 5.67353C17.265 5.8053 17.5426 6.66406 17.0532 7.18427L13.9985 10.4323C13.8129 10.6297 13.7246 10.9003 13.7593 11.1696L14.3315 15.6022C14.4232 16.3122 13.6967 16.8428 13.0532 16.5358L9.03562 14.6188C8.79154 14.5026 8.50817 14.5024 8.26414 14.6188L4.24656 16.5358C3.60312 16.8427 2.87659 16.3121 2.96824 15.6022L3.54051 11.1696C3.57521 10.9003 3.48785 10.6297 3.30222 10.4323L0.246561 7.18427C-0.24245 6.66412 0.035049 5.80549 0.734842 5.67353L5.10691 4.85126C5.37245 4.80117 5.60157 4.63361 5.73094 4.39521L7.85984 0.471379Z" fill="var(--fill-0, #A9A9A9)" fill-opacity="0.28"/>
</svg>
