<svg preserveAspectRatio="none" width="100%" height="100%" overflow="visible" style="display: block;" viewBox="0 0 15.5516 15.5498" fill="none" xmlns="http://www.w3.org/2000/svg">
<path id="Union" fill-rule="evenodd" clip-rule="evenodd" d="M1.4938 0.256268C1.15207 -0.0854226 0.598023 -0.0854226 0.256295 0.256268C-0.0854318 0.597958 -0.0854318 1.15195 0.256295 1.49364L6.53829 7.77496L0.25639 14.0562C-0.0853369 14.3979 -0.0853373 14.9519 0.25639 15.2935C0.598117 15.6352 1.15217 15.6352 1.49389 15.2935L7.77579 9.01233L14.0577 15.2935C14.3994 15.6352 14.9535 15.6352 15.2952 15.2935C15.6369 14.9519 15.6369 14.3979 15.2952 14.0562L9.0133 7.77496L15.2953 1.49364C15.637 1.15195 15.637 0.597958 15.2953 0.256268C14.9536 -0.0854226 14.3995 -0.0854226 14.0578 0.256268L7.77579 6.53759L1.4938 0.256268Z" fill="var(--fill-0, #7E7E7E)"/>
</svg>
