<svg preserveAspectRatio="none" width="100%" height="100%" overflow="visible" style="display: block;" viewBox="0 0 14.667 2.66699" fill="none" xmlns="http://www.w3.org/2000/svg">
<path id="Union" d="M1.33301 0C2.06928 0 2.66682 0.596778 2.66699 1.33301C2.66699 2.06939 2.06939 2.66699 1.33301 2.66699C0.596778 2.66682 0 2.06928 0 1.33301C0.000175953 0.596886 0.596886 0.000176018 1.33301 0ZM7.33301 0C8.06928 0 8.66682 0.596778 8.66699 1.33301C8.66699 2.06939 8.06939 2.66699 7.33301 2.66699C6.59678 2.66682 6 2.06928 6 1.33301C6.00018 0.596887 6.59689 0.000176469 7.33301 0ZM13.333 0C14.0693 0 14.6668 0.596778 14.667 1.33301C14.667 2.06939 14.0694 2.66699 13.333 2.66699C12.5968 2.66682 12 2.06928 12 1.33301C12.0002 0.596887 12.5969 0.000176726 13.333 0Z" fill="var(--fill-0, #7E7E7E)"/>
</svg>
