<svg preserveAspectRatio="none" width="100%" height="100%" overflow="visible" style="display: block;" viewBox="0 0 9 7" fill="none" xmlns="http://www.w3.org/2000/svg">
<path id="Union" d="M3.54545 0C3.60091 0 3.65607 0.00129953 3.7109 0.00378606C3.76881 1.83085 5.24515 3.30487 7.08907 3.3885C7.09291 3.38867 7.09554 3.3885 7.10361 3.3885L9 3.39231V3.66154L7.09511 3.66543C7.09114 3.66543 7.0878 3.66543 7.08694 3.66543C5.26221 3.74926 3.79795 5.19474 3.71303 6.99608C3.6575 6.99863 3.60163 7 3.54545 7C3.50766 7 3.47001 6.99934 3.4325 6.99819C3.34779 5.17791 1.85463 3.72049 0.00383523 3.66333C0.0013164 3.6092 0 3.55475 0 3.5C0 3.46338 0.000626724 3.42689 0.00175781 3.39055C1.87175 3.33385 3.37715 1.84776 3.43458 0.00173528C3.4714 0.000618686 3.50836 0 3.54545 0Z" fill="var(--fill-0, #FF9100)"/>
</svg>
