<svg width="42" height="42" viewBox="0 0 42 42" fill="none" xmlns="http://www.w3.org/2000/svg">
<rect width="42" height="42" fill="#ABABAB"/>
<g id="Icon Button">
<rect width="42" height="42" rx="21" fill="#FF7800"/>
<g id="AI file" clip-path="url(#clip0_5175_66343)">
<g id="Union">
<path d="M21 12.75C21.4142 12.75 21.7504 13.0862 21.7504 13.5004C21.7502 13.9144 21.4141 14.2496 21 14.2496H16.5C16.0858 14.2497 15.7496 14.5858 15.7496 15V27.0004C15.7498 27.4144 16.086 27.7496 16.5 27.7496H25.5C25.9141 27.7496 26.2502 27.4144 26.2504 27.0004V19.5C26.2504 19.0859 26.5856 18.7499 26.9996 18.7496C27.4138 18.7496 27.75 19.0858 27.75 19.5V27.0004C27.7498 28.2428 26.7425 29.2504 25.5 29.2504H16.5C15.2575 29.2503 14.2502 28.2428 14.25 27.0004V15C14.25 13.7574 15.2574 12.75 16.5 12.75H21Z" fill="white"/>
<path d="M23.25 23.2496C23.6642 23.2496 24.0004 23.5858 24.0004 24C24.0004 24.4142 23.6642 24.7504 23.25 24.7504H18.75C18.3358 24.7504 17.9996 24.4142 17.9996 24C17.9996 23.5858 18.3358 23.2496 18.75 23.2496H23.25Z" fill="white"/>
<path d="M23.25 20.2504C23.6641 20.2504 24.0002 20.5856 24.0004 20.9996C24.0004 21.4138 23.6642 21.75 23.25 21.75H18.75C18.3358 21.75 17.9996 21.4138 17.9996 20.9996C17.9998 20.5856 18.3359 20.2504 18.75 20.2504H23.25Z" fill="white"/>
<path d="M21 17.25C21.4142 17.25 21.7504 17.5862 21.7504 18.0004C21.7502 18.4144 21.4141 18.7496 21 18.7496H18.75C18.3359 18.7496 17.9998 18.4144 17.9996 18.0004C17.9996 17.5862 18.3358 17.25 18.75 17.25H21Z" fill="white"/>
<path d="M24.843 12.9401C24.8913 14.4082 26.1211 15.5931 27.6577 15.6603C27.6609 15.6604 27.6631 15.6603 27.6698 15.6603L29.2496 15.6636V15.88L27.6632 15.8833H27.6555C26.1351 15.9508 24.9149 17.1122 24.8441 18.5596C24.7979 18.5616 24.7513 18.5629 24.7046 18.5629C24.6731 18.5629 24.6413 18.5616 24.6101 18.5607C24.5393 17.0982 23.2957 15.9272 21.7537 15.8811C21.7516 15.8378 21.7504 15.7942 21.7504 15.7504C21.7504 15.7211 21.7505 15.6915 21.7515 15.6625C23.3098 15.6169 24.5644 14.4223 24.6123 12.939C24.643 12.9381 24.6737 12.9379 24.7046 12.9379C24.7508 12.9379 24.7973 12.9381 24.843 12.9401Z" fill="white"/>
</g>
</g>
</g>
<defs>
<clipPath id="clip0_5175_66343">
<rect width="18" height="18" fill="white" transform="translate(12 12)"/>
</clipPath>
</defs>
</svg>
