<svg width="393" height="85" viewBox="0 0 393 85" fill="none" xmlns="http://www.w3.org/2000/svg">
<rect width="393" height="85" fill="#ABABAB"/>
<g id="Tab Menu" filter="url(#filter0_d_5175_66343)">
<rect width="393" height="84" transform="translate(0 0.5)" fill="#F8F8F8"/>
<g id="Frame 23">
<g id="Tab 1">
<g id="Frame 95">
<g id="icon-Tab Menu/Job">
<path id="Fill" fill-rule="evenodd" clip-rule="evenodd" d="M44.533 24.5C45.5669 24.5 46.3951 23.7992 46.2912 22.8003V16.1997C46.2912 15.1997 45.5669 14.5 44.533 14.5H30.0582C29.0243 14.5 28.3 15.1997 28.3 16.1997V22.8003C28.3 23.7992 29.0243 24.5 30.0582 24.5H44.533Z" fill="#FF7800"/>
<path id="Fill_2" fill-rule="evenodd" clip-rule="evenodd" d="M32.3234 9.0487V8.55683C32.3234 7.82008 33.074 7.09717 33.84 7.09717H40.6511C41.416 7.09717 42.1665 7.82008 42.1665 8.55683V9.0487H32.3234ZM46.4567 9.04853H43.8238V8.55666C43.8238 6.92878 42.3404 5.5 40.6503 5.5H33.8391C32.148 5.5 30.6646 6.92878 30.6646 8.55666V9.04853H28.1444C26.0597 9.04853 24.3 10.7445 24.3 12.7514V19.6792C24.3 20.12 24.6714 20.4777 25.129 20.4777C25.5866 20.4777 25.958 20.12 25.958 19.6792V12.7514C25.958 11.6293 26.9805 10.6455 28.1444 10.6455H30.6646V12.4289C30.6646 12.8696 31.036 13.2274 31.4936 13.2274C31.9512 13.2274 32.3226 12.8696 32.3226 12.4289V10.6455H42.1657V12.2138C42.1657 12.6546 42.5371 13.0123 42.9947 13.0123C43.4524 13.0123 43.8238 12.6546 43.8238 12.2138V10.6455H46.4567C47.6206 10.6455 48.642 11.6293 48.642 12.7514V24.7971C48.642 25.9192 47.6206 26.903 46.4567 26.903H28.1444C26.9805 26.903 25.958 25.9192 25.958 24.7971V24.6896C25.958 24.2488 25.5866 23.8911 25.129 23.8911C24.6714 23.8911 24.3 24.2488 24.3 24.6896V24.7971C24.3 26.804 26.0597 28.5 28.1444 28.5H46.4567C48.5403 28.5 50.3 26.804 50.3 24.7971V12.7514C50.3 10.7445 48.5403 9.04853 46.4567 9.04853Z" fill="#FF7800"/>
</g>
</g>
<path id="Label" d="M31.28 36.33L31.39 37.02L28.3 37.59C28.36 38.16 28.43 38.67 28.53 39.13C28.62 39.54 28.72 39.92 28.83 40.26C29.5 39.62 30.07 38.85 30.53 37.95L31.15 38.28C30.59 39.36 29.9 40.26 29.08 40.99C29.2 41.27 29.31 41.52 29.43 41.73C29.81 42.31 30.15 42.61 30.45 42.62C30.67 42.58 30.91 41.98 31.15 40.83L31.79 41.23C31.63 41.81 31.45 42.3 31.27 42.69C31.04 43.16 30.78 43.4 30.49 43.4C30.03 43.4 29.57 43.08 29.11 42.44C28.91 42.15 28.72 41.81 28.55 41.42C27.89 41.91 27.15 42.3 26.35 42.6L25.96 41.99C26.82 41.69 27.6 41.27 28.28 40.74C28.15 40.39 28.03 40.02 27.93 39.62C27.79 39.08 27.68 38.45 27.6 37.72L26.28 37.97L26.17 37.27L27.53 37.02C27.46 36.22 27.42 35.33 27.42 34.33H28.15C28.15 35.27 28.18 36.13 28.24 36.89L31.28 36.33ZM26.11 38.28V39.02C25.71 39.24 25.3 39.43 24.89 39.61V42.55C24.89 43.14 24.59 43.44 24.01 43.44H23.15L22.99 42.73C23.26 42.76 23.52 42.78 23.76 42.78C24.02 42.78 24.16 42.64 24.16 42.37V39.92C23.73 40.09 23.3 40.24 22.86 40.38L22.67 39.63C23.17 39.5 23.67 39.35 24.16 39.17V36.86H22.8V36.17H24.16V34.36H24.89V36.17H26.08V36.86H24.89V38.88C25.31 38.7 25.71 38.5 26.11 38.28ZM29.65 34.34C29.99 34.74 30.3 35.17 30.6 35.64L29.95 35.96C29.66 35.47 29.35 35.03 29.01 34.64L29.65 34.34ZM37.22 36.27H38.81C38.88 35.98 38.93 35.69 38.97 35.39H36.85V34.74H41.85V35.39H39.67C39.63 35.69 39.57 35.98 39.49 36.27H41.41V41.48H37.22V36.27ZM40.73 40.85V39.88H37.9V40.85H40.73ZM37.9 39.28H40.73V38.41H37.9V39.28ZM37.9 37.81H40.73V36.86H37.9V37.81ZM38.4 41.61L38.89 42.05C38.41 42.62 37.83 43.12 37.13 43.55L36.71 43C37.37 42.6 37.94 42.14 38.4 41.61ZM40.29 41.6C40.93 42.07 41.46 42.54 41.9 43.02L41.42 43.49C41.04 43.03 40.51 42.55 39.84 42.03L40.29 41.6ZM32.81 34.84H36.5V35.51H32.81V34.84ZM33.1 36.5H36.29V39.39H33.1V36.5ZM35.65 38.77V37.12H33.74V38.77H35.65ZM36.53 41.86V42.52C35.45 42.76 34.23 42.96 32.85 43.11L32.76 42.45C33.52 42.37 34.23 42.28 34.88 42.18C35.14 41.44 35.36 40.65 35.55 39.8L36.17 40.02C35.99 40.78 35.8 41.46 35.58 42.06C35.91 41.99 36.23 41.92 36.53 41.86ZM33.74 39.88C33.95 40.42 34.14 41.04 34.31 41.73L33.72 41.89C33.58 41.25 33.39 40.64 33.16 40.06L33.74 39.88ZM43.21 34.73H46.29V37.87H45.29V39.48H46.33V40.16H45.29V42.02C45.73 41.88 46.16 41.74 46.56 41.59V42.31C45.52 42.7 44.3 43.06 42.91 43.39L42.71 42.69L43.24 42.57V38.94H43.88V42.41C44.13 42.35 44.38 42.28 44.62 42.22V37.87H43.21V34.73ZM45.6 37.21V35.39H43.91V37.21H45.6ZM51.06 39.76V43.47H50.37V43.03H47.85V43.47H47.16V39.76H51.06ZM47.85 42.37H50.37V40.41H47.85V42.37ZM48.18 34.31L48.87 34.44C48.79 34.69 48.7 34.93 48.6 35.17H51.08V35.69C50.74 36.53 50.24 37.27 49.59 37.91C50.25 38.45 51.05 38.87 51.98 39.16L51.57 39.75C50.58 39.43 49.75 38.97 49.08 38.37C48.4 38.92 47.6 39.39 46.66 39.79L46.23 39.21C47.15 38.84 47.93 38.4 48.59 37.88C48.23 37.49 47.93 37.07 47.68 36.61C47.42 36.91 47.13 37.18 46.81 37.44L46.38 36.87C47.26 36.18 47.86 35.33 48.18 34.31ZM48.09 36.06C48.36 36.58 48.69 37.05 49.09 37.45C49.6 36.95 50.01 36.41 50.32 35.81H48.26C48.2 35.89 48.15 35.98 48.09 36.06Z" fill="#FF7800"/>
</g>
<g id="Tab 2">
<g id="Frame 95_2">
<g id="icon-Tab Menu/Company">
<path id="Combined Shape" d="M111.368 13.3506C114.27 13.3507 116.623 15.7035 116.624 18.6055C116.624 20.3587 115.764 21.9104 114.444 22.8652C117.034 24.0376 118.836 26.6424 118.836 29.6699C118.836 30.1282 118.465 30.5 118.006 30.5C117.548 30.5 117.176 30.1282 117.176 29.6699C117.176 26.4621 114.576 23.8613 111.368 23.8613C108.16 23.8615 105.559 26.4622 105.559 29.6699C105.559 30.1281 105.188 30.4998 104.73 30.5C104.272 30.5 103.9 30.1282 103.9 29.6699C103.9 26.6429 105.702 24.0379 108.291 22.8652C106.972 21.9103 106.113 20.3583 106.113 18.6055C106.113 15.7036 108.466 13.3508 111.368 13.3506ZM126.858 4.5C128.476 4.5001 129.799 5.76344 129.895 7.35742L129.9 7.54297V25.2451C129.9 26.8629 128.637 28.1853 127.044 28.2812L126.858 28.2871H121.326C120.868 28.287 120.496 27.9153 120.496 27.457C120.496 27.0371 120.809 26.6897 121.213 26.6348L121.326 26.6279H126.858C127.574 26.6278 128.163 26.0831 128.234 25.3857L128.241 25.2451V7.54297C128.241 6.82705 127.697 6.238 127 6.16699L126.858 6.15918H113.582C112.866 6.15918 112.276 6.70399 112.206 7.40137L112.198 7.54297V10.8613C112.198 11.3195 111.827 11.6912 111.369 11.6914C110.949 11.6914 110.602 11.3795 110.546 10.9746L110.539 10.8613V7.54297C110.539 5.92485 111.802 4.60165 113.396 4.50586L113.582 4.5H126.858ZM120.826 21.9258C121.102 21.9259 121.326 22.1497 121.326 22.4258V23.6387C121.326 23.9146 121.102 24.1385 120.826 24.1387H119.613C119.337 24.1387 119.113 23.9146 119.113 23.6387V22.4258C119.113 22.1496 119.337 21.9258 119.613 21.9258H120.826ZM125.252 21.9258C125.528 21.9258 125.752 22.1497 125.752 22.4258V23.6387C125.751 23.9146 125.527 24.1386 125.252 24.1387H124.039C123.763 24.1387 123.539 23.9146 123.539 23.6387V22.4258C123.539 22.1496 123.762 21.9258 124.039 21.9258H125.252ZM111.369 15.0107C109.383 15.0108 107.773 16.6208 107.773 18.6064C107.773 20.5921 109.383 22.2021 111.369 22.2021C113.354 22.2021 114.964 20.5921 114.964 18.6064C114.964 16.6208 113.354 15.0108 111.369 15.0107ZM120.826 17.5C121.102 17.5001 121.326 17.7239 121.326 18V19.2129C121.326 19.4889 121.102 19.7128 120.826 19.7129H119.613C119.337 19.7129 119.113 19.489 119.113 19.2129V18C119.113 17.7239 119.337 17.5 119.613 17.5H120.826ZM125.252 17.5C125.528 17.5001 125.752 17.7239 125.752 18V19.2129C125.751 19.4889 125.528 19.7128 125.252 19.7129H124.039C123.763 19.7129 123.539 19.489 123.539 19.2129V18C123.539 17.7239 123.762 17.5 124.039 17.5H125.252ZM120.826 13.0742C121.102 13.0744 121.326 13.2983 121.326 13.5742V14.7871C121.326 15.0632 121.102 15.287 120.826 15.2871H119.613C119.337 15.2871 119.113 15.0633 119.113 14.7871V13.5742C119.113 13.2982 119.337 13.0742 119.613 13.0742H120.826ZM125.252 13.0742C125.528 13.0743 125.751 13.2982 125.752 13.5742V14.7871C125.752 15.0632 125.528 15.287 125.252 15.2871H124.039C123.762 15.2871 123.539 15.0633 123.539 14.7871V13.5742C123.539 13.2982 123.763 13.0742 124.039 13.0742H125.252ZM116.4 8.64941C116.676 8.64941 116.9 8.87327 116.9 9.14941V10.3613C116.9 10.6375 116.676 10.8613 116.4 10.8613H115.187C114.911 10.8613 114.687 10.6374 114.687 10.3613V9.14941C114.687 8.87331 114.911 8.64948 115.187 8.64941H116.4ZM120.826 8.64941C121.102 8.64955 121.326 8.87335 121.326 9.14941V10.3613C121.326 10.6374 121.102 10.8612 120.826 10.8613H119.613C119.337 10.8613 119.113 10.6375 119.113 10.3613V9.14941C119.113 8.87327 119.337 8.64941 119.613 8.64941H120.826ZM125.252 8.64941C125.528 8.64948 125.752 8.87331 125.752 9.14941V10.3613C125.752 10.6374 125.528 10.8613 125.252 10.8613H124.039C123.762 10.8613 123.539 10.6375 123.539 10.3613V9.14844C123.539 8.87252 123.763 8.64941 124.039 8.64941H125.252Z" fill="#7E7E7E"/>
</g>
</g>
<path id="Label_2" d="M110.88 36.33L110.99 37.02L107.9 37.59C107.96 38.16 108.03 38.67 108.13 39.13C108.22 39.54 108.32 39.92 108.43 40.26C109.1 39.62 109.67 38.85 110.13 37.95L110.75 38.28C110.19 39.36 109.5 40.26 108.68 40.99C108.8 41.27 108.91 41.52 109.03 41.73C109.41 42.31 109.75 42.61 110.05 42.62C110.27 42.58 110.51 41.98 110.75 40.83L111.39 41.23C111.23 41.81 111.05 42.3 110.87 42.69C110.64 43.16 110.38 43.4 110.09 43.4C109.63 43.4 109.17 43.08 108.71 42.44C108.51 42.15 108.32 41.81 108.15 41.42C107.49 41.91 106.75 42.3 105.95 42.6L105.56 41.99C106.42 41.69 107.2 41.27 107.88 40.74C107.75 40.39 107.63 40.02 107.53 39.62C107.39 39.08 107.28 38.45 107.2 37.72L105.88 37.97L105.77 37.27L107.13 37.02C107.06 36.22 107.02 35.33 107.02 34.33H107.75C107.75 35.27 107.78 36.13 107.84 36.89L110.88 36.33ZM105.71 38.28V39.02C105.31 39.24 104.9 39.43 104.49 39.61V42.55C104.49 43.14 104.19 43.44 103.61 43.44H102.75L102.59 42.73C102.86 42.76 103.12 42.78 103.36 42.78C103.62 42.78 103.76 42.64 103.76 42.37V39.92C103.33 40.09 102.9 40.24 102.46 40.38L102.27 39.63C102.77 39.5 103.27 39.35 103.76 39.17V36.86H102.4V36.17H103.76V34.36H104.49V36.17H105.68V36.86H104.49V38.88C104.91 38.7 105.31 38.5 105.71 38.28ZM109.25 34.34C109.59 34.74 109.9 35.17 110.2 35.64L109.55 35.96C109.26 35.47 108.95 35.03 108.61 34.64L109.25 34.34ZM115.21 34.72L115.88 34.99C115.16 36.97 114.2 38.49 113.02 39.54L112.45 39.05C113.67 37.97 114.59 36.53 115.21 34.72ZM118.61 39.73C119.38 40.81 120.04 41.97 120.6 43.19L119.93 43.49C119.78 43.15 119.63 42.84 119.48 42.54C117.71 42.81 115.74 43.02 113.58 43.16L113.45 42.46C114.24 42.04 115.24 40.46 116.44 37.72L117.15 37.96C116.3 39.84 115.44 41.33 114.57 42.42C116.19 42.32 117.72 42.15 119.16 41.92C118.77 41.2 118.37 40.54 117.95 39.94L118.61 39.73ZM116.74 34.68H118.98C119.32 36.45 120.14 37.88 121.43 38.98L120.86 39.5C119.64 38.4 118.83 37.02 118.42 35.35H116.74V34.68ZM123.38 38.6H127.79V41.68H123.38V38.6ZM127.1 41.04V39.25H124.08V41.04H127.1ZM129.53 43.43H128.15L127.97 42.74L129.37 42.76C129.67 42.76 129.83 42.56 129.83 42.16V35.45H123.03V34.75H130.55V42.36C130.55 43.07 130.21 43.43 129.53 43.43ZM122.63 36.72H128.78V37.37H122.63V36.72Z" fill="#7E7E7E"/>
</g>
<g id="Tab 5">
<g id="Frame 95_3">
<g id="icon-Tab Menu/Message">
<path id="Fill_3" fill-rule="evenodd" clip-rule="evenodd" d="M196.501 27.8697C195.227 27.8697 194.065 27.2295 193.391 26.2393H199.623C198.959 27.2512 197.823 27.8697 196.501 27.8697ZM196.275 8.73907C195.797 8.73907 195.352 8.78037 194.92 8.83798V7.59776C194.92 6.74668 195.557 6.13037 196.435 6.13037C197.313 6.13037 197.949 6.74668 197.949 7.59776V8.86189C196.984 8.69885 196.313 8.73581 196.275 8.73907ZM207.159 24.6087H205.738C205.524 16.3554 205.276 13.7511 202.592 11.1522C201.644 10.2326 200.597 9.6663 199.632 9.31196V7.59783C199.632 5.83152 198.258 4.5 196.435 4.5C194.612 4.5 193.237 5.83152 193.237 7.59783V9.225C189.465 10.5272 187.91 14.1685 187.594 16.475C187.353 17.762 187.244 20.1315 187.244 21.4022C187.244 21.8522 187.621 22.2174 188.085 22.2174C188.55 22.2174 188.927 21.8522 188.927 21.4022C188.927 20.0011 189.05 17.8293 189.256 16.7283C189.291 16.4685 190.201 10.3696 196.334 10.3674C196.36 10.3652 199.23 10.1989 201.403 12.3054C203.551 14.387 203.835 16.2967 204.054 24.6087H185.841C185.377 24.6087 185 24.9739 185 25.4239C185 25.8739 185.377 26.2391 185.841 26.2391H191.507C192.323 28.1772 194.295 29.5 196.5 29.5C198.779 29.5 200.678 28.2304 201.495 26.2391H207.159C207.623 26.2391 208 25.8739 208 25.4239C208 24.9739 207.623 24.6087 207.159 24.6087Z" fill="#7E7E7E"/>
<path id="Fill_4" fill-rule="evenodd" clip-rule="evenodd" d="M185.623 13.6814C185.739 9.17753 189.236 8.19838 189.385 8.15908C189.818 8.04679 190.083 7.59202 189.977 7.14175C189.869 6.69035 189.425 6.41412 188.995 6.52416C187.32 6.94973 184.12 8.98327 184 13.6354C183.988 14.1003 184.341 14.4876 184.79 14.5H184.812C185.251 14.5 185.611 14.1384 185.623 13.6814Z" fill="#7E7E7E"/>
<path id="Fill_5" fill-rule="evenodd" clip-rule="evenodd" d="M204.005 6.5238C203.574 6.41489 203.13 6.68997 203.023 7.14132C202.917 7.59268 203.184 8.04853 203.62 8.15968C203.656 8.16866 207.26 9.1365 207.377 13.6804C207.389 14.1373 207.749 14.5 208.188 14.5H208.21C208.659 14.4865 209.013 14.0992 209 13.6343C208.879 8.98268 205.68 6.94933 204.005 6.5238Z" fill="#7E7E7E"/>
</g>
</g>
<path id="Label_3" d="M183.53 38.08H186.17V35.89H186.15C185.37 36.86 184.09 37.66 182.33 38.28L181.95 37.64C183.57 37.18 184.77 36.59 185.55 35.89H182.41V35.23H186.17V34.31H186.87V35.23H190.63V35.89H186.87V36.23C188.41 36.65 189.8 37.11 191.04 37.61L190.58 38.13C189.38 37.61 188.14 37.14 186.87 36.74V38.08H189.51V41.76H183.53V38.08ZM188.81 41.12V40.24H184.23V41.12H188.81ZM184.23 39.63H188.81V38.72H184.23V39.63ZM182.21 42.54H190.8V43.21H182.21V42.54ZM196.75 35.42C197.19 35.69 197.59 35.95 197.93 36.21C198.46 35.94 198.95 35.63 199.39 35.28H194.99V34.68H200.34V35.19C199.74 35.73 199.09 36.19 198.37 36.57C198.42 36.61 198.46 36.64 198.49 36.67H200.53V41.17C200.53 41.71 200.26 41.98 199.73 41.98H198.89L198.73 41.37L199.53 41.4C199.74 41.4 199.85 41.27 199.85 41.03V40.3H198.19V42.02H197.53V40.3H195.91V42.03H195.23V36.67H197.6C197.22 36.4 196.79 36.12 196.3 35.84L196.75 35.42ZM195.91 38.81V39.7H197.53V38.81H195.91ZM198.19 38.81V39.7H199.85V38.81H198.19ZM199.85 38.21V37.27H198.19V38.21H199.85ZM197.53 38.21V37.27H195.91V38.21H197.53ZM192.83 34.43C193.43 34.91 193.94 35.39 194.35 35.87L193.88 36.34C193.51 35.89 193 35.41 192.35 34.89L192.83 34.43ZM192.06 36.83H194.37V37.4C194.01 37.99 193.59 38.56 193.11 39.12H194.46V39.6C194.32 40.4 194.14 41.06 193.93 41.59C194.01 41.64 194.1 41.71 194.19 41.79C194.51 42.08 194.83 42.3 195.16 42.45C195.5 42.57 195.96 42.64 196.55 42.66C197.1 42.66 197.73 42.67 198.45 42.67C199.13 42.67 200 42.65 201.08 42.61L200.92 43.3H198.54C197.77 43.3 197.09 43.29 196.5 43.27C195.8 43.25 195.27 43.17 194.9 43.02C194.48 42.86 194.1 42.6 193.75 42.26C193.67 42.19 193.58 42.16 193.5 42.16C193.26 42.16 192.91 42.6 192.46 43.48L191.93 43.01C192.4 42.11 192.85 41.61 193.27 41.49C193.48 40.97 193.65 40.38 193.78 39.73H192.25V39.18C192.77 38.61 193.21 38.05 193.57 37.49H192.06V36.83ZM210.6 35.39V43.04H209.9V42.4H207.94V43.06H207.25V35.39H210.6ZM207.94 41.73H209.9V36.06H207.94V41.73ZM203.47 36.36C203.22 36.9 202.94 37.4 202.63 37.86L202 37.46C202.66 36.5 203.13 35.45 203.43 34.3L204.14 34.45C204.02 34.88 203.89 35.29 203.75 35.67H206.64V36.36H205.18C205.17 37.08 205.13 37.75 205.06 38.35H206.73V39.04H204.96C204.91 39.3 204.86 39.56 204.8 39.8C205.44 40.45 206.1 41.19 206.76 42.01L206.33 42.67C205.65 41.71 205.08 40.98 204.61 40.46C204.2 41.58 203.47 42.52 202.41 43.28L201.94 42.7C203 41.93 203.7 40.96 204.04 39.79C204.1 39.55 204.16 39.3 204.21 39.04H202.12V38.35H204.31C204.39 37.75 204.43 37.08 204.44 36.36H203.47Z" fill="#7E7E7E"/>
</g>
<g id="Tab 3">
<g id="Frame 95_4">
<g id="icon-Tab Menu/Find Way">
<path id="Group" fill-rule="evenodd" clip-rule="evenodd" d="M283.627 27.7461C281.029 27.7461 278.914 25.639 278.914 23.0502C278.914 20.4625 281.029 18.3555 283.627 18.3555C286.225 18.3555 288.34 20.4625 288.34 23.0502C288.34 25.639 286.225 27.7461 283.627 27.7461ZM275.131 19.0022L275.168 16.9279C275.585 16.7595 276.288 16.5982 277.032 16.9197L277.07 19.0092C276.361 18.8912 275.693 18.9075 275.131 19.0022ZM268.571 27.7236C265.973 27.7236 263.86 25.6177 263.86 23.0289C263.86 20.4401 265.973 18.333 268.571 18.333C271.171 18.333 273.284 20.4401 273.284 23.0289C273.284 25.6177 271.171 27.7236 268.571 27.7236ZM267.162 14.4348C267.677 13.2375 268.855 12.4634 270.164 12.4634C271.953 12.4634 273.418 13.9145 273.428 15.6766L273.374 18.7203C272.188 17.4095 270.477 16.5793 268.571 16.5793C267.67 16.5793 266.812 16.764 266.032 17.0985L267.162 14.4348ZM270.496 8.80935C270.642 8.4726 270.972 8.25394 271.34 8.25394C271.842 8.25394 272.254 8.66202 272.258 9.1426L272.222 11.1608C271.591 10.8767 270.898 10.7095 270.164 10.7095C269.989 10.7095 269.818 10.7293 269.647 10.7469L270.496 8.80935ZM280.858 8.27734C281.227 8.27734 281.558 8.49366 281.701 8.82691L282.521 10.7586C282.359 10.7434 282.198 10.7305 282.035 10.7305C281.301 10.7305 280.607 10.8989 279.977 11.183L279.942 9.18472C279.944 8.68426 280.356 8.27734 280.858 8.27734ZM289.228 19.8335L287.741 16.3267C287.552 15.8824 287.035 15.6684 286.588 15.8614C286.141 16.0496 285.93 16.5641 286.119 17.0096L286.166 17.1195C285.386 16.7863 284.528 16.6015 283.627 16.6015C281.721 16.6015 280.01 17.4317 278.825 18.7425L278.771 15.7187C278.78 13.9355 280.245 12.4844 282.036 12.4844C283.062 12.4844 284.009 12.9533 284.633 13.7683C284.928 14.153 285.48 14.2267 285.866 13.9332C286.253 13.6409 286.327 13.0901 286.033 12.7043C285.689 12.2553 285.279 11.8776 284.825 11.5736L283.321 8.14052C282.899 7.15831 281.932 6.52339 280.859 6.52339C279.392 6.52339 278.19 7.71256 278.182 9.19639L278.24 12.4996C277.626 13.2141 277.215 14.0969 277.08 15.0768C276.351 14.9014 275.675 14.9645 275.126 15.1025C275 14.1039 274.586 13.2024 273.959 12.4739L274.018 9.1543C274.009 7.69034 272.808 6.5 271.34 6.5C270.266 6.5 269.301 7.1361 268.877 8.12298L267.776 10.7188L267.387 11.5443C266.586 12.0717 265.939 12.8282 265.542 13.7484L262.971 19.8112C262.971 19.8112 262.971 19.8124 262.97 19.8124C262.42 20.7607 262.1 21.8575 262.1 23.0291C262.1 26.585 265.003 29.4778 268.572 29.4778C272.142 29.4778 275.045 26.585 275.045 23.0291C275.045 22.289 274.914 21.5815 274.681 20.9174C275.273 20.7139 276.369 20.4894 277.514 20.949C277.285 21.6084 277.154 22.3135 277.154 23.0502C277.154 26.606 280.057 29.5 283.627 29.5C287.197 29.5 290.1 26.606 290.1 23.0502C290.1 21.8785 289.78 20.7817 289.228 19.8335Z" fill="#7E7E7E"/>
</g>
</g>
<path id="Label_4" d="M273.54 34.3C274.02 34.66 274.43 35.03 274.77 35.4L274.31 35.86H275.53V36.55H272.45C272.52 37.79 272.65 38.77 272.83 39.49C272.89 39.74 272.96 39.97 273.03 40.19C273.53 39.39 273.93 38.45 274.24 37.38L274.89 37.66C274.49 38.98 273.97 40.1 273.33 41C273.47 41.32 273.62 41.6 273.78 41.83C274.11 42.31 274.38 42.55 274.58 42.55C274.76 42.54 274.93 42.02 275.08 40.99L275.73 41.35C275.49 42.68 275.15 43.35 274.7 43.35C274.28 43.35 273.83 43.05 273.35 42.45C273.17 42.21 273 41.93 272.85 41.62C272.15 42.44 271.33 43.05 270.39 43.47L269.99 42.87C270.99 42.42 271.84 41.76 272.53 40.89C272.39 40.52 272.26 40.12 272.15 39.69C271.93 38.85 271.79 37.8 271.71 36.55H268.28V38.21H270.73C270.71 39.9 270.63 40.99 270.5 41.48C270.37 41.91 270.06 42.13 269.56 42.15C269.32 42.15 269.03 42.13 268.71 42.11L268.49 41.46C268.88 41.48 269.21 41.49 269.48 41.49C269.7 41.48 269.84 41.33 269.9 41.05C269.96 40.71 269.99 39.99 270.01 38.89H268.28V39.19C268.24 40.98 267.84 42.42 267.1 43.5L266.55 43.01C267.19 42.09 267.52 40.82 267.55 39.19V35.86H271.68C271.66 35.36 271.65 34.85 271.65 34.31H272.39C272.39 34.87 272.4 35.38 272.42 35.86H274.29C273.99 35.5 273.59 35.13 273.08 34.74L273.54 34.3ZM279.09 36.82V37.62H283.98V38.23H279.09V39.07H285.4V39.73H278.89V42.7C279.74 42.54 280.6 42.3 281.46 41.99L281.59 42.63C280.62 42.97 279.5 43.25 278.23 43.47L277.94 42.87C278.11 42.8 278.2 42.71 278.2 42.59V39.73H276.8V39.07H278.39V34.69H284.47V35.35H279.09V36.2H283.97V36.82H279.09ZM281.55 39.98C281.82 40.47 282.16 40.91 282.58 41.3C283.19 41.02 283.77 40.59 284.33 40.01L284.8 40.48C284.3 41.01 283.73 41.42 283.09 41.72C283.79 42.24 284.66 42.64 285.68 42.92L285.27 43.51C283.25 42.95 281.82 41.88 280.98 40.31L281.55 39.98Z" fill="#7E7E7E"/>
</g>
<g id="Tab 4">
<g id="Frame 95_5">
<g id="icon-Tab Menu/Me">
<path id="Fill_6" fill-rule="evenodd" clip-rule="evenodd" d="M345.532 30.5C345.125 30.5 344.772 30.1982 344.722 29.786C343.898 22.9859 345.395 18.9638 345.459 18.7961L345.577 18.4056C345.824 17.5964 346.077 16.7699 346.355 15.9597C344.812 16.533 343.744 16.6207 343.176 16.2139C342.843 15.9759 342.671 15.594 342.704 15.1657C342.737 14.7589 342.909 14.3359 343.231 13.8718C343.813 13.0324 344.678 12.4839 345.366 12.0999C346.12 11.6801 346.91 11.3567 347.673 11.0441L347.966 10.9229C350.3 9.96552 352.804 9.42679 355.209 9.36621H355.908C356.359 9.36621 356.724 9.72969 356.724 10.1775C356.724 10.6254 356.359 10.9889 355.908 10.9889H355.228C353.043 11.0441 350.741 11.5395 348.591 12.4233L348.296 12.5434C347.543 12.8528 346.833 13.1416 346.165 13.5159C345.598 13.8318 344.965 14.231 344.575 14.7914C345.053 14.6918 345.736 14.4733 346.361 14.2094C346.71 14.0622 347.53 13.7117 348.081 14.2407C348.228 14.3814 348.538 14.7805 348.276 15.4577C347.853 16.5449 347.49 17.7306 347.139 18.8773L347.004 19.3208C346.973 19.4084 345.572 23.2217 346.345 29.5913C346.398 30.0359 346.079 30.4405 345.631 30.4935C345.598 30.4978 345.565 30.5 345.532 30.5Z" fill="#7E7E7E"/>
<path id="Fill_7" fill-rule="evenodd" clip-rule="evenodd" d="M365.875 30.4292C365.844 30.4292 365.811 30.427 365.778 30.4238C365.331 30.3707 365.011 29.9672 365.063 29.5226C365.822 23.1552 364.427 19.409 364.413 19.3722L364.26 18.8768C363.909 17.7312 363.545 16.5444 363.124 15.4573C362.861 14.7801 363.172 14.3809 363.318 14.2402C363.869 13.7145 364.691 14.0618 365.04 14.211C365.663 14.4728 366.346 14.6914 366.825 14.792C366.434 14.2294 365.801 13.8313 365.235 13.5155C364.566 13.1422 363.856 12.8523 363.104 12.544L362.808 12.4228C360.658 11.539 358.355 11.0436 356.15 10.9884H355.491C355.04 10.9884 354.675 10.6249 354.675 10.1771C354.675 9.7292 355.04 9.36572 355.491 9.36572H356.17C358.595 9.4263 361.099 9.96503 363.432 10.9235L363.726 11.0436C364.489 11.3562 365.279 11.6797 366.034 12.1005C366.721 12.4834 367.586 13.0319 368.168 13.8714C368.49 14.3354 368.663 14.7595 368.695 15.1652C368.729 15.5936 368.556 15.9765 368.222 16.2134C367.655 16.6213 366.588 16.5336 365.043 15.9592C365.322 16.7716 365.575 17.5981 365.822 18.4062L365.957 18.8476C366.004 18.9622 367.49 22.9562 366.685 29.713C366.636 30.1263 366.283 30.4292 365.875 30.4292Z" fill="#7E7E7E"/>
<path id="Fill_8" fill-rule="evenodd" clip-rule="evenodd" d="M356.245 17.2807C356.012 17.258 355.776 17.2656 355.543 17.2829C355.321 17.2991 355.101 17.3338 354.885 17.3857C354.512 17.4744 353.91 17.6897 354.068 18.1949C354.245 18.6914 354.517 19.11 355.007 19.295L355.006 19.2961C355.006 19.2961 355.02 19.3004 355.043 19.308C355.149 19.3448 355.263 19.3697 355.388 19.3827C355.58 19.4108 355.83 19.4227 356.11 19.3816C356.784 19.2983 357.139 18.8677 357.359 18.3214C357.363 18.3117 357.367 18.302 357.371 18.2933C357.373 18.2879 357.374 18.2836 357.376 18.2792C357.634 17.6118 356.737 17.3283 356.245 17.2807Z" fill="#7E7E7E"/>
<path id="Fill_9" fill-rule="evenodd" clip-rule="evenodd" d="M355.683 23.0616C354.424 23.0616 353.291 22.5478 352.658 22.0945C352.292 21.8327 352.21 21.3264 352.473 20.9629C352.737 20.6005 353.246 20.5172 353.611 20.778C353.708 20.8429 355.8 22.2773 357.515 20.7055C357.846 20.4015 358.362 20.4221 358.669 20.7509C358.975 21.0798 358.954 21.5936 358.623 21.8976C357.684 22.7598 356.647 23.0616 355.683 23.0616Z" fill="#7E7E7E"/>
<path id="Fill_10" fill-rule="evenodd" clip-rule="evenodd" d="M360.76 15.6003C360.76 16.3587 360.142 16.9731 359.378 16.9731C358.615 16.9731 357.997 16.3587 357.997 15.6003C357.997 14.8431 358.615 14.2275 359.378 14.2275C360.142 14.2275 360.76 14.8431 360.76 15.6003Z" fill="#7E7E7E"/>
<path id="Fill_11" fill-rule="evenodd" clip-rule="evenodd" d="M353.447 15.6096C353.447 16.3669 352.829 16.9824 352.066 16.9824C351.304 16.9824 350.684 16.3669 350.684 15.6096C350.684 14.8524 351.304 14.2368 352.066 14.2368C352.829 14.2368 353.447 14.8524 353.447 15.6096Z" fill="#7E7E7E"/>
<path id="Fill_12" fill-rule="evenodd" clip-rule="evenodd" d="M360.664 11.0355C360.539 11.0355 360.413 11.0074 360.293 10.9468C359.892 10.7424 359.732 10.2534 359.938 9.8553L361.943 5.95654L363.397 6.69324L361.392 10.5931C361.248 10.8743 360.962 11.0355 360.664 11.0355Z" fill="#7E7E7E"/>
<path id="Fill_13" fill-rule="evenodd" clip-rule="evenodd" d="M363.266 9.16343C362.625 9.16343 362.023 8.999 361.483 8.67014C361.098 8.43539 360.977 7.93561 361.213 7.55482C361.449 7.17186 361.952 7.05071 362.336 7.28653C363.623 8.06975 365.288 6.78999 365.45 6.6591C365.661 6.43733 365.99 6.34646 366.301 6.44707C366.729 6.58986 366.96 7.04854 366.817 7.47368C366.626 8.04595 365.229 8.71665 364.768 8.88325C364.252 9.0704 363.748 9.16343 363.266 9.16343Z" fill="#7E7E7E"/>
<path id="Fill_14" fill-rule="evenodd" clip-rule="evenodd" d="M348.286 9.1462C347.803 9.1462 347.299 9.05317 346.783 8.86602C346.323 8.69943 344.926 8.02872 344.734 7.45646C344.592 7.03131 344.822 6.57264 345.25 6.42984C345.562 6.3314 345.891 6.42119 346.102 6.64187C346.264 6.77277 347.93 8.0536 349.215 7.26931C349.599 7.03456 350.103 7.15356 350.339 7.53759C350.574 7.91838 350.453 8.41816 350.069 8.65291C349.529 8.98177 348.927 9.1462 348.286 9.1462Z" fill="#7E7E7E"/>
<path id="Fill_15" fill-rule="evenodd" clip-rule="evenodd" d="M351.741 10.0888L349.61 5.94228C349.405 5.54419 348.913 5.38516 348.51 5.58854C348.109 5.79192 347.949 6.28088 348.155 6.68006L350.117 10.4966L351.754 10.1353C351.748 10.1201 351.749 10.1039 351.741 10.0888Z" fill="#7E7E7E"/>
<path id="Fill_16" fill-rule="evenodd" clip-rule="evenodd" d="M363.266 9.18038C363.748 9.18038 364.252 9.08735 364.768 8.9002C365.229 8.73361 366.626 8.0629 366.817 7.49064C366.96 7.06549 366.729 6.60682 366.301 6.46402C365.99 6.36558 365.661 6.45537 365.45 6.67605C365.288 6.80695 363.622 8.08778 362.336 7.30349C361.953 7.06874 361.449 7.18774 361.213 7.57177C360.977 7.95256 361.098 8.45234 361.483 8.68709C362.023 9.01595 362.625 9.18038 363.266 9.18038Z" fill="#7E7E7E"/>
<path id="Fill_17" fill-rule="evenodd" clip-rule="evenodd" d="M359.811 10.1225L361.942 5.97598C362.147 5.57788 362.639 5.41886 363.042 5.62223C363.443 5.82561 363.603 6.31457 363.397 6.71375L361.434 10.5303L359.798 10.169C359.804 10.1527 359.803 10.1376 359.811 10.1225Z" fill="#7E7E7E"/>
</g>
</g>
<path id="Label_5" d="M343.29 40.61H343.87V41.51H344.81C344.81 41.44 344.82 41.38 344.82 41.32V40.51H345.42V41.32C345.4 41.88 345.23 42.32 344.93 42.66C344.62 42.97 344.12 43.21 343.43 43.39L343.09 42.87C343.73 42.72 344.19 42.53 344.45 42.29C344.53 42.2 344.59 42.11 344.64 42.03H343.29V40.61ZM346.08 40.5H346.71V41.51H347.64V40.63H348.22V42.03H346.71V43.39H346.08V40.5ZM342.27 36.23V36.76H344.64V36.23H342.27ZM344.64 35.76V35.23H342.27V35.76H344.64ZM346.73 36.23V36.77H349.12V36.23H346.73ZM349.12 35.77V35.24H346.73V35.77H349.12ZM345.3 34.7V37.27H344.69L344.72 37.28C344.26 37.9 343.89 38.32 343.61 38.54L344.61 38.47C344.77 38.29 344.93 38.1 345.1 37.91L345.59 38.11C344.86 38.95 344.27 39.51 343.82 39.8L345.01 39.64C344.96 39.47 344.91 39.31 344.85 39.17L345.29 39.03C345.43 39.39 345.56 39.82 345.68 40.3L345.22 40.41C345.19 40.29 345.16 40.17 345.13 40.06C344.39 40.17 343.69 40.25 343.05 40.31L342.95 39.87C343.28 39.74 343.7 39.42 344.2 38.91C343.76 38.95 343.35 38.98 342.98 39.01L342.88 38.56C343.17 38.42 343.57 37.99 344.09 37.27H342.27V43.5H341.6V34.7H345.3ZM349.12 37.28H347.63C347.18 37.9 346.81 38.31 346.53 38.53C346.83 38.51 347.17 38.48 347.55 38.45C347.71 38.28 347.87 38.1 348.03 37.91L348.52 38.11C347.79 38.93 347.2 39.49 346.74 39.79L347.96 39.63C347.9 39.47 347.84 39.31 347.78 39.17L348.22 39.03C348.38 39.41 348.53 39.84 348.66 40.34L348.2 40.46C348.16 40.32 348.13 40.18 348.09 40.05C347.33 40.15 346.63 40.23 345.98 40.29L345.88 39.85C346.21 39.72 346.63 39.4 347.14 38.89C346.7 38.93 346.29 38.96 345.91 38.99L345.81 38.54C346.09 38.41 346.48 37.99 347 37.28H346.07V34.7H349.79V42.69C349.79 43.2 349.52 43.46 348.99 43.46C348.61 43.46 348.23 43.45 347.87 43.44L347.71 42.83C348.08 42.85 348.43 42.86 348.75 42.86C348.99 42.86 349.12 42.73 349.12 42.48V37.28ZM356.91 38.13C357.74 38.69 358.45 39.31 359.05 39.99L358.61 40.51C358.05 39.83 357.35 39.21 356.49 38.63L356.91 38.13ZM356.09 40.71C357.5 41.4 358.71 42.16 359.72 42.98L359.26 43.54C358.32 42.71 357.12 41.93 355.66 41.21L356.09 40.71ZM351.28 35.77H353.12C352.95 35.34 352.75 34.92 352.53 34.5L353.23 34.31C353.47 34.81 353.66 35.26 353.78 35.67L353.51 35.77H355.33V36.46H352.87V37.87H354.76C354.76 40.3 354.71 41.8 354.62 42.38C354.54 43.05 354.13 43.39 353.41 43.39C353.31 43.39 353.13 43.37 352.89 43.35L352.72 42.73C352.94 42.75 353.14 42.76 353.32 42.76C353.7 42.76 353.92 42.54 353.98 42.11C354.04 41.72 354.07 40.53 354.09 38.53H352.86C352.81 40.77 352.41 42.41 351.66 43.47L351.14 43.02C351.84 42.01 352.19 40.4 352.2 38.2V36.46H351.28V35.77ZM357.24 34.42H357.87C358.35 35.8 359.17 37.01 360.33 38.06L359.94 38.67C358.88 37.72 358.08 36.54 357.56 35.14C356.98 36.7 356.25 37.9 355.37 38.74L354.99 38.16C355.96 37.2 356.71 35.96 357.24 34.42ZM365.81 38.98V39.71C365.23 39.9 364.63 40.08 363.99 40.25V42.5C363.99 43.08 363.68 43.37 363.07 43.37H361.96L361.81 42.68C362.16 42.71 362.5 42.73 362.83 42.73C363.11 42.73 363.25 42.59 363.25 42.32V40.42C362.61 40.56 361.96 40.69 361.28 40.8L361.18 40.07C361.91 39.95 362.6 39.83 363.25 39.69V37.72H361.19V37.03H363.25V35.69C362.72 35.8 362.17 35.89 361.6 35.97L361.45 35.28C362.87 35.12 364.13 34.83 365.23 34.4L365.47 35.08C365.01 35.24 364.51 35.39 363.99 35.53V37.03H366.39C366.33 36.22 366.3 35.33 366.3 34.35H367.02C367.03 35.36 367.06 36.25 367.12 37.03H370.21V37.72H367.18C367.25 38.44 367.34 39.04 367.46 39.53C367.52 39.79 367.59 40.02 367.66 40.24C368.14 39.66 368.57 39 368.93 38.26L369.55 38.59C369.09 39.53 368.55 40.33 367.92 41C368.06 41.34 368.2 41.63 368.36 41.86C368.68 42.34 368.94 42.59 369.13 42.59C369.33 42.58 369.5 42.02 369.66 40.9L370.29 41.23C370.05 42.65 369.7 43.36 369.24 43.36C368.83 43.36 368.4 43.06 367.94 42.46C367.74 42.19 367.55 41.87 367.39 41.51C366.67 42.15 365.85 42.65 364.94 43.01L364.55 42.39C365.53 42.03 366.38 41.5 367.11 40.81C366.99 40.47 366.88 40.1 366.78 39.71C366.64 39.14 366.53 38.48 366.45 37.72H363.99V39.52C364.64 39.35 365.25 39.17 365.81 38.98ZM368.12 34.46C368.84 34.94 369.45 35.41 369.95 35.89L369.43 36.41C368.99 35.95 368.4 35.45 367.64 34.92L368.12 34.46Z" fill="#7E7E7E"/>
</g>
</g>
<g id="Home Indicator bar">
<rect id="Home Indicator" x="129.5" y="70.5" width="134" height="5" rx="2.5" fill="black"/>
</g>
</g>
<defs>
<filter id="filter0_d_5175_66343" x="-35.3377" y="-34.8377" width="463.675" height="154.675" filterUnits="userSpaceOnUse" color-interpolation-filters="sRGB">
<feFlood flood-opacity="0" result="BackgroundImageFix"/>
<feColorMatrix in="SourceAlpha" type="matrix" values="0 0 0 0 0 0 0 0 0 0 0 0 0 0 0 0 0 0 127 0" result="hardAlpha"/>
<feOffset dy="-0.5"/>
<feColorMatrix type="matrix" values="0 0 0 0 0 0 0 0 0 0 0 0 0 0 0 0 0 0 0.3 0"/>
<feBlend mode="normal" in2="BackgroundImageFix" result="effect1_dropShadow_5175_66343"/>
<feBlend mode="normal" in="SourceGraphic" in2="effect1_dropShadow_5175_66343" result="shape"/>
</filter>
</defs>
</svg>
