<svg preserveAspectRatio="none" width="100%" height="100%" overflow="visible" style="display: block;" viewBox="0 0 16.6699 16.6699" fill="none" xmlns="http://www.w3.org/2000/svg">
<path id="Union" fill-rule="evenodd" clip-rule="evenodd" d="M6.80176 16.6699C6.2543 16.6699 5.72147 16.4883 5.28711 16.1533L4.80664 15.7822C4.55206 16.2624 4.07025 16.6037 3.50391 16.6611L3.33398 16.6699H1.66699L1.49707 16.6611C0.712255 16.5816 0.088356 15.9577 0.00878906 15.1729L0 15.0029V8.33496C0 7.41427 0.746297 6.66797 1.66699 6.66797H3.33398C3.49791 6.66797 3.65602 6.69224 3.80566 6.73633L7.88184 0.677734L7.96777 0.561523C8.18663 0.29063 8.53617 0.0303364 9.00781 0.00292969L9.2041 0C9.6775 0.00952148 10.2493 0.152822 10.7275 0.594727C11.2849 1.10977 11.5791 1.90392 11.5791 2.94629C11.579 4.05365 11.3222 5.01897 11.0596 5.72168H14.2588C14.8237 5.72168 15.5612 5.97742 16.0781 6.67773C16.5979 7.38226 16.8035 8.40892 16.5811 9.78223C16.4137 10.815 15.9268 11.9763 15.417 12.9883C14.8995 14.0155 14.3223 14.9584 13.9277 15.5723C13.4742 16.2775 12.6999 16.6699 11.8955 16.6699H6.80176ZM11.8955 15.0029C12.1683 15.0029 12.4037 14.8721 12.5352 14.668C12.9124 14.0811 13.4557 13.1908 13.9375 12.2344C14.4271 11.2625 14.8201 10.2876 14.9453 9.51465C15.1236 8.41377 14.912 7.89344 14.7471 7.66992C14.5789 7.4422 14.3622 7.38868 14.2588 7.38867H8.21777L9.05078 6.10254L9.05566 6.0957C9.06006 6.08862 9.06782 6.07599 9.07812 6.05859C9.09936 6.02271 9.13252 5.96568 9.17285 5.88965C9.25394 5.73674 9.36477 5.50813 9.47656 5.2207C9.70165 4.64191 9.9208 3.8446 9.9209 2.94629C9.9209 2.21163 9.71999 1.92815 9.60547 1.82227C9.50463 1.72907 9.36813 1.68021 9.21582 1.66992L5.0625 7.84082V13.8779L6.29688 14.8301C6.44166 14.9417 6.61928 15.0029 6.80176 15.0029H11.8955ZM3.33398 15.0029V8.33496H1.66699V15.0029H3.33398Z" fill="var(--fill-0, #7E7E7E)"/>
</svg>
