<svg preserveAspectRatio="none" width="100%" height="100%" overflow="visible" style="display: block;" viewBox="0 0 18.333 14.167" fill="none" xmlns="http://www.w3.org/2000/svg">
<path id="Union" d="M5.41699 8.33301C6.8291 8.33309 8.19729 8.8429 9.21777 9.77051C10.2409 10.7006 10.8329 11.9801 10.833 13.333C10.833 13.7932 10.4602 14.167 10 14.167C9.53976 14.167 9.16699 13.7932 9.16699 13.333C9.16687 12.4761 8.79243 11.6364 8.09668 11.0039C7.39826 10.369 6.43566 10.0001 5.41699 10C4.39815 10 3.43483 10.3689 2.73633 11.0039C2.04062 11.6364 1.66711 12.4761 1.66699 13.333C1.66699 13.7932 1.29325 14.167 0.833008 14.167C0.37292 14.1668 -4.02257e-08 13.7931 0 13.333C0.000118496 11.9801 0.592113 10.7006 1.61523 9.77051C2.63581 8.84272 4.00469 8.33301 5.41699 8.33301ZM12.917 6.66699C14.329 6.66707 15.6973 7.17597 16.7178 8.10352C17.741 9.03372 18.333 10.3139 18.333 11.667C18.3328 12.1271 17.9601 12.5 17.5 12.5C17.0399 12.5 16.6672 12.1271 16.667 11.667C16.667 10.81 16.2925 9.96952 15.5967 9.33691C14.8983 8.7021 13.9356 8.33309 12.917 8.33301C11.8982 8.33301 10.9348 8.70194 10.2363 9.33691C9.89591 9.64639 9.36921 9.62144 9.05957 9.28125C8.74998 8.9407 8.77469 8.4131 9.11523 8.10352C10.1358 7.1758 11.5047 6.66699 12.917 6.66699ZM5.41699 1.66699C7.02752 1.66719 8.33279 2.97249 8.33301 4.58301C8.33301 6.19372 7.02765 7.4998 5.41699 7.5C3.80616 7.5 2.5 6.19384 2.5 4.58301C2.50022 2.97236 3.8063 1.66699 5.41699 1.66699ZM5.41699 3.33301C4.72677 3.33301 4.16721 3.89284 4.16699 4.58301C4.16699 5.27336 4.72664 5.83301 5.41699 5.83301C6.10718 5.83281 6.66699 5.27324 6.66699 4.58301C6.66677 3.89296 6.10704 3.33321 5.41699 3.33301ZM12.917 0C14.5277 0.000198396 15.833 1.30628 15.833 2.91699C15.8328 4.52755 14.5275 5.83281 12.917 5.83301C11.3063 5.83301 10.0002 4.52767 10 2.91699C10 1.30616 11.3062 0 12.917 0ZM12.917 1.66699C12.2266 1.66699 11.667 2.22664 11.667 2.91699C11.6672 3.6072 12.2267 4.16699 12.917 4.16699C13.6071 4.16679 14.1668 3.60708 14.167 2.91699C14.167 2.22676 13.6072 1.66719 12.917 1.66699Z" fill="var(--fill-0, #7E7E7E)"/>
</svg>
