<svg preserveAspectRatio="none" width="100%" height="100%" overflow="visible" style="display: block;" viewBox="0 0 16.6699 16.6699" fill="none" xmlns="http://www.w3.org/2000/svg">
<path id="Union" fill-rule="evenodd" clip-rule="evenodd" d="M9.8681 0C10.4156 3.59237e-06 10.9484 0.181628 11.3827 0.516602L11.8632 0.887695C12.1178 0.407528 12.5996 0.0662066 13.166 0.00878906L13.3359 0H15.0029L15.1728 0.00878906C15.9576 0.0883559 16.5815 0.712255 16.6611 1.49707L16.6699 1.66699V8.33496C16.6699 9.25566 15.9236 10.002 15.0029 10.002H13.3359C13.172 10.002 13.0138 9.97768 12.8642 9.93359L8.78802 15.9922L8.70209 16.1084C8.48323 16.3793 8.13368 16.6396 7.66205 16.667L7.46576 16.6699C6.99236 16.6604 6.42058 16.5171 5.94232 16.0752C5.385 15.5601 5.09076 14.766 5.09076 13.7236C5.09085 12.6163 5.34765 11.651 5.61029 10.9482H2.41107C1.84612 10.9482 1.10867 10.6925 0.591734 9.99219C0.0719264 9.28767 -0.133619 8.26101 0.0888047 6.8877C0.256141 5.85497 0.743049 4.69362 1.25287 3.68164C1.7704 2.65439 2.34759 1.71148 2.74213 1.09766C3.19566 0.39238 3.96993 0 4.77435 0H9.8681ZM4.77435 1.66699C4.50151 1.66699 4.26613 1.79787 4.1347 2.00195C3.75748 2.58884 3.21419 3.47914 2.73236 4.43555C2.24278 5.40738 1.84979 6.3823 1.72455 7.15527C1.54622 8.25615 1.75783 8.77648 1.92279 9C2.09093 9.22772 2.30764 9.28125 2.41107 9.28125H8.45209L7.61908 10.5674L7.6142 10.5742C7.6098 10.5813 7.60203 10.5939 7.59173 10.6113C7.5705 10.6472 7.53734 10.7042 7.49701 10.7803C7.41592 10.9332 7.30509 11.1618 7.1933 11.4492C6.96821 12.028 6.74906 12.8253 6.74896 13.7236C6.74896 14.4583 6.94987 14.7418 7.06439 14.8477C7.16523 14.9408 7.30173 14.9897 7.45404 15L11.6074 8.8291V2.79199L10.373 1.83984C10.2282 1.7282 10.0506 1.667 9.8681 1.66699H4.77435ZM13.3359 1.66699V8.33496H15.0029V1.66699H13.3359Z" fill="var(--fill-0, #7E7E7E)"/>
</svg>
