<svg width="119" height="24" viewBox="0 0 119 24" fill="none" xmlns="http://www.w3.org/2000/svg">
<rect width="119" height="24" fill="white"/>
<path d="M9.80611 5.50317C9.70091 8.9315 6.94355 11.6914 3.51837 11.7967C3.62359 8.36839 6.38096 5.60849 9.80611 5.50317Z" fill="#4CA1DE"/>
<path d="M10.3122 5.50708C13.6896 5.66237 16.3689 8.40693 16.475 11.8C13.0976 11.6447 10.4183 8.9002 10.3122 5.50708Z" fill="#FECF65"/>
<path d="M16.475 12.3C16.3195 15.6454 13.9 18.375 10.3161 18.4928C10.4716 15.1474 13.1327 12.4557 16.475 12.3Z" fill="#F3A2A2"/>
<path d="M3.52002 12.2532C6.92776 12.3588 9.67418 15.092 9.80453 18.4966C6.3968 18.391 3.65034 15.6577 3.52002 12.2532Z" fill="#33C488"/>
<path d="M16.4403 11.8C17.6653 11.8 18.375 11.8 20 11.8C19.9 6.3 15.5264 2 10.0057 2C6.39693 2 3.23802 3.83923 1.47923 6.70716C-0.273685 9.89112 0.0182322 11.4 0.0182097 12.05C0.200704 9.99916 0.784999 8.03808 2.05748 6.58582C2.08842 6.55162 2.12095 6.51424 2.15347 6.48004C2.33038 6.2828 2.51602 6.09749 2.71117 5.91934C2.75163 5.88355 2.79051 5.84776 2.83017 5.81038C3.30295 5.39961 3.80791 5.06981 4.36026 4.775C4.61959 4.62644 4.90123 4.50812 5.17817 4.39722C5.55749 4.24436 5.95857 4.0881 6.35647 3.99387C6.57067 3.94456 6.78725 3.904 7.00541 3.87139C7.09823 3.85707 7.19104 3.84037 7.28783 3.82765C7.6004 3.79186 7.91693 3.76879 8.23902 3.76879C8.71818 3.76879 9.18545 3.81572 9.64161 3.89446C9.70031 3.90559 9.76219 3.90798 9.8201 3.9207C9.89944 3.93661 9.9748 3.95967 10.0525 3.97637C10.734 4.12987 11.3869 4.36131 11.9906 4.67228C11.9938 4.67387 11.9954 4.67546 11.9986 4.67705C12.2199 4.79078 12.4373 4.91485 12.6475 5.05006C12.6665 5.06278 12.6816 5.07471 12.6998 5.08903C12.8918 5.2131 13.0814 5.34353 13.2623 5.4851C13.2798 5.49782 13.2933 5.51134 13.3091 5.52248C13.49 5.66564 13.6669 5.81436 13.8359 5.97104C13.8517 5.98376 13.8636 6.00047 13.8779 6.01319C14.0469 6.17146 14.2095 6.3345 14.3626 6.50709C14.3793 6.52697 14.3952 6.54924 14.4118 6.56753C14.561 6.73693 14.703 6.90952 14.8378 7.09085C14.895 7.1672 14.9449 7.25071 15.0005 7.33024C15.0869 7.45749 15.179 7.58156 15.2607 7.71359C15.3432 7.85038 15.4138 7.99434 15.4915 8.13431C15.5336 8.21464 15.5828 8.29417 15.6232 8.37848C15.701 8.53515 15.7676 8.6982 15.8343 8.86283C15.8652 8.93441 15.9009 9.0028 15.9287 9.07756C16.0151 9.309 16.0929 9.54521 16.1595 9.78619C16.1627 9.79415 16.1659 9.79972 16.1674 9.80926C16.3055 10.3079 16.3983 10.8233 16.4403 11.3562C16.4641 11.5757 16.4403 11.8 16.4403 11.8Z" fill="url(#paint0_linear_5409_96173)"/>
<path d="M19.6458 14.6895C19.975 13.45 20 12.6844 20 12.3H16.425C16.05 16.225 13.6808 18.375 10.0242 18.4655C6.44493 18.4655 3.55163 15.5648 3.55163 11.9906C3.55163 8.41476 6.44493 5.51408 10.0242 5.51408C13.3757 5.51408 16.1157 8.11292 16.45 11.375C16.1102 7.13835 12.5857 3.75 8.25602 3.75C5.38977 3.75 2.56603 5.51408 1.39211 7.4317C0.218188 9.34933 0.0183716 10.305 0.0183716 11.9906C0.0183716 17.5163 4.49569 22 10.0234 22C13.3471 22 16.2825 20.3725 18.1015 17.8769C18.9971 16.6482 19.363 15.4967 19.6458 14.6895Z" fill="url(#paint1_linear_5409_96173)"/>
<path d="M36.7441 19H34.4238L33.1494 15.458H27.7002L26.4873 19H24.167L29.2998 5.38574H31.6465L36.7441 19ZM32.5605 13.709L30.6621 8.33887C30.5918 8.14551 30.5215 7.80273 30.4512 7.31055H30.3896C30.3369 7.71484 30.2637 8.05176 30.1699 8.32129L28.2803 13.709H32.5605ZM42.0088 7.1084H40.7432V17.2773H42.0088V19H37.377V17.2773H38.6338V7.1084H37.377V5.38574H42.0088V7.1084ZM64.0957 16.6621C63.9082 18.1387 63.6885 19.082 63.4365 19.4922C63.1846 19.9023 62.833 20.1074 62.3818 20.1074C62.0361 20.1074 61.7402 19.9609 61.4941 19.668C61.248 19.3809 60.9756 18.8389 60.6768 18.042C60.0557 18.7334 59.3643 19.4307 58.6025 20.1338L57.5215 19.1582C58.6055 18.291 59.5107 17.3154 60.2373 16.2314C59.9912 14.6611 59.8418 12.7949 59.7891 10.6328H53.5312V9.20898H54.9111C54.8408 8.59375 54.6855 7.88477 54.4453 7.08203H53.9619V5.64062H55.8691C55.7637 5.22461 55.6084 4.7998 55.4033 4.36621L56.8887 4.04102C57.1113 4.57422 57.293 5.10742 57.4336 5.64062H59.3408V7.08203H58.8398C58.6816 7.82031 58.5059 8.5293 58.3125 9.20898H59.7363C59.7012 6.8125 59.6895 5.16309 59.7012 4.26074H61.1602C61.1367 6.1709 61.1484 7.82031 61.1953 9.20898H63.876V10.6328H61.2656C61.2656 11.7695 61.3154 12.9619 61.415 14.21C61.8779 13.167 62.1943 12.1943 62.3643 11.292L63.6826 11.8545C63.1787 13.6416 62.5342 15.1943 61.749 16.5127C61.8486 17.04 61.9746 17.4883 62.127 17.8574C62.2793 18.2207 62.3701 18.4023 62.3994 18.4023C62.4287 18.4023 62.4902 18.1943 62.584 17.7783C62.6836 17.3564 62.7422 16.7617 62.7598 15.9941L64.0957 16.6621ZM57.3457 7.08203H55.9395C56.1211 7.83789 56.2588 8.54688 56.3525 9.20898H56.7656C57.0352 8.36523 57.2285 7.65625 57.3457 7.08203ZM53.5488 6.13281H52.9336V19.9141H51.4746V17.3301C50.5254 17.7109 49.5527 18.0391 48.5566 18.3145L48.0557 16.873C48.2139 16.8379 48.5244 16.75 48.9873 16.6094V6.13281H48.2139V4.65625H53.5488V6.13281ZM51.4746 8.34766V6.13281H50.4287V8.34766H51.4746ZM51.4746 12.127V9.82422H50.4287V12.127H51.4746ZM51.4746 15.7041V13.6035H50.4287V16.1172C50.7275 16.0234 51.0762 15.8857 51.4746 15.7041ZM63.8408 8.09277L62.5312 8.61133C62.3906 7.75 62.083 6.66016 61.6084 5.3418L62.8828 4.84961C63.2754 5.82812 63.5947 6.90918 63.8408 8.09277ZM58.8574 17.8838H54.208V11.3887H58.8574V17.8838ZM57.3984 13.8145V12.7861H55.6494V13.8145H57.3984ZM57.3984 16.4775V15.1504H55.6494V16.4775H57.3984ZM70.125 6.65137L69.0264 7.95215C68.3994 7.16113 67.4824 6.30859 66.2754 5.39453L67.3477 4.14648C68.2969 4.79688 69.2227 5.63184 70.125 6.65137ZM81.8936 5.91309H72.0674V13.1113C72.0674 15.7773 71.4727 18.1299 70.2832 20.1689L68.9209 19.2021C69.9521 17.5029 70.4678 15.1621 70.4678 12.1797V4.50684H81.8936V5.91309ZM81.7529 12.5576H72.7002V11.0811H76.3828V9.38477H73.2363V7.92578H76.3828V6.5459H77.9561V7.92578H80.7422V9.38477H77.9561V11.0811H81.7529V12.5576ZM69.9932 10.8965L68.9561 12.2324C68.3584 11.5996 67.3916 10.873 66.0557 10.0527L67.0312 8.76074C68.2148 9.39355 69.2021 10.1055 69.9932 10.8965ZM69.5098 14.0869C69.0059 16.0967 68.3115 18.0889 67.4268 20.0635L66.0381 19.0352C66.9873 17.0195 67.6699 15.0566 68.0859 13.1465L69.5098 14.0869ZM81.9111 19.5801H72.3223V18.1387H76.4092V16.2139H72.9814V14.7549H76.4092V13.1816H77.9561V14.7549H81.208V16.2139H77.9561V18.1387H81.9111V19.5801ZM90.0322 11.3711H88.2129V19.8613H86.666V11.3711H84.2139V9.78027H86.666V4.18164H88.2129V9.78027H90.0322V11.3711ZM99.9111 10.7031H90.5156V9.41992H94.3828V8.50586H91.043V7.35449H94.3828V6.52832H90.7178V5.22754H94.3828V4.22559H95.9561V5.22754H99.6387V6.52832H95.9561V7.35449H99.3574V8.50586H95.9561V9.41992H99.9111V10.7031ZM86.1826 8.74316L84.8994 9.22656C84.6592 7.63867 84.4248 6.4873 84.1963 5.77246L85.4619 5.29785C85.8018 6.48145 86.042 7.62988 86.1826 8.74316ZM90.3574 5.86035C90.2578 6.91504 90.0703 8.03711 89.7949 9.22656L88.5557 8.81348C88.8018 7.8584 88.9746 6.75391 89.0742 5.5L90.3574 5.86035ZM99.1201 18.3145C99.1201 18.7832 98.959 19.1787 98.6367 19.501C98.3145 19.8232 97.5205 19.9492 96.2549 19.8789L95.7012 18.3672L97.2656 18.3496C97.459 18.3496 97.5557 18.2617 97.5557 18.0859V17.1104H92.5371C92.2734 18.2705 91.8633 19.2432 91.3066 20.0283L90.1553 18.877C90.8408 17.9453 91.1836 16.624 91.1836 14.9131V11.5996H99.1201V18.3145ZM97.5557 13.7793V12.918H92.7305V13.7793H97.5557ZM97.5557 15.9414V14.9834H92.7129C92.7129 15.3057 92.7012 15.625 92.6777 15.9414H97.5557ZM90.375 16.46L88.9863 16.9082C88.9688 15.4492 88.8604 14.0283 88.6611 12.6455L89.9443 12.3203C90.1846 14.0898 90.3281 15.4697 90.375 16.46ZM86.165 12.5928C86.0713 14.2627 85.8252 15.8828 85.4268 17.4531L84.1084 16.7324C84.4424 15.5547 84.6709 14.084 84.7939 12.3203L86.165 12.5928ZM117.604 10.0703H116.004V7.37207H110.818V10.6855H109.271V7.37207H104.121V10.0352H102.539V6.16797H109.271V5.55273H103.154V4.38379H116.979V5.55273H110.818V6.16797H117.604V10.0703ZM108.771 8.09277L108.48 9.06836C106.693 8.79297 105.416 8.64648 104.648 8.62891L104.938 7.67969C106.204 7.73242 107.481 7.87012 108.771 8.09277ZM115.573 8.66406C114.413 8.86328 113.092 8.97168 111.609 8.98926L111.214 8.00488C112.86 7.9873 114.12 7.88477 114.993 7.69727L115.573 8.66406ZM108.946 10.3076C106.937 10.5361 105.551 10.6504 104.789 10.6504L104.394 9.63965C105.396 9.66895 106.77 9.57227 108.516 9.34961L108.946 10.3076ZM115.608 9.85938L115.248 10.8262C113.789 10.5391 112.477 10.3662 111.311 10.3076L111.609 9.36719C112.846 9.4375 114.179 9.60156 115.608 9.85938ZM116.997 13.8848H112.787V11.1514H116.997V13.8848ZM115.626 12.9707V12.1445H114.167V12.9707H115.626ZM112.119 13.8848H107.997V11.1514H112.119V13.8848ZM110.748 12.9707V12.1445H109.324V12.9707H110.748ZM107.259 13.8848H103.119V11.1514H107.259V13.8848ZM105.905 12.9707V12.1445H104.481V12.9707H105.905ZM117.894 19.8262H102.161V18.6748H109.271V15.7217H106.934C106.893 15.8213 106.802 15.9531 106.661 16.1172C107.71 16.5332 108.478 16.8701 108.964 17.1279L108.12 18.3145C107.522 17.9395 106.72 17.5439 105.712 17.1279C105.132 17.6318 104.417 18.0625 103.567 18.4199L102.706 17.2861C103.837 16.8877 104.701 16.3662 105.299 15.7217H102.741V14.5703H117.305V15.7217H115.125L114.835 16.1348C115.948 16.5684 116.783 16.958 117.34 17.3037L116.487 18.4199C115.849 17.9863 115.005 17.5615 113.956 17.1455C113.446 17.6084 112.834 18.0273 112.119 18.4023L111.073 17.4355C112.058 16.9727 112.849 16.4014 113.446 15.7217H110.871V18.6748H117.894V19.8262Z" fill="#FF7800"/>
<defs>
<linearGradient id="paint0_linear_5409_96173" x1="16.6725" y1="10.6445" x2="9.06278" y2="1.38935" gradientUnits="userSpaceOnUse">
<stop stop-color="#FF9A10"/>
<stop offset="1" stop-color="#FFE396"/>
</linearGradient>
<linearGradient id="paint1_linear_5409_96173" x1="14.4603" y1="22" x2="6.2596" y2="3.17175" gradientUnits="userSpaceOnUse">
<stop stop-color="#E55010"/>
<stop offset="0.622953" stop-color="#FF7800"/>
<stop offset="1" stop-color="#FF9A10"/>
</linearGradient>
</defs>
</svg>
