<svg preserveAspectRatio="none" width="100%" height="100%" overflow="visible" style="display: block;" viewBox="0 0 14.9996 16.5004" fill="none" xmlns="http://www.w3.org/2000/svg">
<g id="Union">
<path d="M6.75 0C7.16421 0 7.50037 0.336153 7.50037 0.750366C7.50017 1.16441 7.16409 1.49963 6.75 1.49963H2.25C1.83583 1.49968 1.49963 1.83582 1.49963 2.25V14.2504C1.49983 14.6644 1.83595 14.9996 2.25 14.9996H11.25C11.6641 14.9996 12.0002 14.6644 12.0004 14.2504V6.75C12.0004 6.33594 12.3356 5.99988 12.7496 5.99963C13.1638 5.99963 13.5 6.33579 13.5 6.75V14.2504C13.4998 15.4928 12.4925 16.5004 11.25 16.5004H2.25C1.00752 16.5003 0.00019765 15.4928 0 14.2504V2.25C3.6237e-08 1.00739 1.0074 4.95137e-05 2.25 0H6.75Z" fill="var(--fill-0, #FF7800)"/>
<path d="M9 10.4996C9.41421 10.4996 9.75037 10.8358 9.75037 11.25C9.75037 11.6642 9.41421 12.0004 9 12.0004H4.5C4.08579 12.0004 3.74963 11.6642 3.74963 11.25C3.74963 10.8358 4.08579 10.4996 4.5 10.4996H9Z" fill="var(--fill-0, #FF7800)"/>
<path d="M9 7.50037C9.41409 7.50037 9.75017 7.83559 9.75037 8.24963C9.75037 8.66385 9.41421 9 9 9H4.5C4.08579 9 3.74963 8.66385 3.74963 8.24963C3.74983 7.83559 4.08591 7.50037 4.5 7.50037H9Z" fill="var(--fill-0, #FF7800)"/>
<path d="M6.75 4.5C7.16421 4.5 7.50037 4.83615 7.50037 5.25037C7.50017 5.66441 7.16409 5.99963 6.75 5.99963H4.5C4.08591 5.99963 3.74983 5.66441 3.74963 5.25037C3.74963 4.83615 4.08579 4.5 4.5 4.5H6.75Z" fill="var(--fill-0, #FF7800)"/>
<path d="M10.593 0.190063C10.6413 1.65824 11.8711 2.84308 13.4077 2.91028C13.4109 2.91041 13.4131 2.91028 13.4198 2.91028L14.9996 2.91357V3.13001L13.4132 3.1333H13.4055C11.8851 3.20084 10.6649 4.36218 10.5941 5.80957C10.5479 5.81162 10.5013 5.81287 10.4546 5.81287C10.4231 5.81287 10.3913 5.8116 10.3601 5.81067C10.2893 4.34825 9.04568 3.17721 7.50366 3.1311C7.50157 3.08777 7.50037 3.04419 7.50037 3.00037C7.50037 2.97109 7.50053 2.94154 7.50147 2.91248C9.05977 2.86692 10.3144 1.67234 10.3623 0.188965C10.393 0.188069 10.4237 0.187867 10.4546 0.187866C10.5008 0.187866 10.5473 0.188065 10.593 0.190063Z" fill="var(--fill-0, #FF7800)"/>
</g>
</svg>
