<svg preserveAspectRatio="none" width="100%" height="100%" overflow="visible" style="display: block;" viewBox="0 0 24 24" fill="none" xmlns="http://www.w3.org/2000/svg">
<path id="&#233;&#129;&#184;&#230;&#147;&#135;&#231;&#139;&#128;&#230;&#133;&#139;" fill-rule="evenodd" clip-rule="evenodd" d="M17.6748 11.4984C17.4408 11.7324 17.1336 11.85 16.8264 11.85C16.5384 11.85 16.2552 11.7372 16.0272 11.5308L16.0188 11.5392L13.2264 8.748V17.8008C13.2264 18.4644 12.69 19.0008 12.0264 19.0008C11.3628 19.0008 10.8264 18.4644 10.8264 17.8008V8.6976L7.9836 11.5392L7.974 11.5308C7.7472 11.7372 7.4628 11.85 7.176 11.85C6.8688 11.85 6.5616 11.7324 6.3276 11.4984C5.8584 11.0292 5.8584 10.2696 6.3276 9.8016L10.5144 5.6148C10.9248 5.2044 11.4624 4.9992 12 4.9992C12.54 4.9992 13.0776 5.2044 13.488 5.6148L17.6748 9.8016C18.144 10.2696 18.144 11.0292 17.6748 11.4984M12 0C5.3736 0 0 5.3736 0 12C0 18.6276 5.3736 24 12 24C18.6288 24 24 18.6276 24 12C24 5.3736 18.6288 0 12 0" fill="var(--fill-0, #FFD6B2)"/>
</svg>
