<svg width="26" height="11" viewBox="0 0 26 11" fill="none" xmlns="http://www.w3.org/2000/svg">
<path d="M1.908 0.0360003H2.448V10.896H1.908V0.0360003ZM0.0959999 4.056H3.912V4.608H0.0959999V4.056ZM1.836 4.332L2.268 4.488C2.172 4.896 2.052 5.324 1.908 5.772C1.772 6.22 1.62 6.664 1.452 7.104C1.284 7.544 1.108 7.956 0.924 8.34C0.74 8.716 0.556 9.036 0.372 9.3C0.348 9.244 0.312 9.18 0.264 9.108C0.224 9.036 0.18 8.968 0.132 8.904C0.0839999 8.832 0.0399999 8.776 -1.3411e-07 8.736C0.24 8.408 0.476 7.996 0.708 7.5C0.948 7.004 1.168 6.48 1.368 5.928C1.568 5.368 1.724 4.836 1.836 4.332ZM2.4 4.92C2.472 5.008 2.58 5.164 2.724 5.388C2.876 5.604 3.036 5.84 3.204 6.096C3.38 6.352 3.54 6.592 3.684 6.816C3.828 7.04 3.928 7.2 3.984 7.296L3.564 7.752C3.5 7.608 3.404 7.416 3.276 7.176C3.148 6.936 3.004 6.684 2.844 6.42C2.684 6.148 2.536 5.9 2.4 5.676C2.264 5.444 2.156 5.268 2.076 5.148L2.4 4.92ZM0.312 0.912L0.744 0.804C0.856 1.076 0.964 1.368 1.068 1.68C1.172 1.992 1.26 2.296 1.332 2.592C1.412 2.88 1.464 3.14 1.488 3.372L1.032 3.492C1.008 3.26 0.956 2.996 0.876 2.7C0.804 2.404 0.716 2.1 0.612 1.788C0.516 1.468 0.416 1.176 0.312 0.912ZM3.624 0.768L4.152 0.924C4.056 1.212 3.948 1.52 3.828 1.848C3.716 2.168 3.6 2.48 3.48 2.784C3.368 3.08 3.256 3.34 3.144 3.564L2.76 3.42C2.864 3.188 2.968 2.916 3.072 2.604C3.184 2.292 3.288 1.972 3.384 1.644C3.488 1.316 3.568 1.024 3.624 0.768ZM4.728 1.044H10.74V1.524H4.728V1.044ZM5.04 2.436H10.476V2.916H5.04V2.436ZM4.392 3.9H11.04V4.392H4.392V3.9ZM7.368 0H7.92V4.164H7.368V0ZM5.22 5.256H9.876V5.748H5.784V10.884H5.22V5.256ZM9.636 5.256H10.188V10.2C10.188 10.368 10.164 10.496 10.116 10.584C10.076 10.68 9.992 10.752 9.864 10.8C9.728 10.848 9.54 10.872 9.3 10.872C9.068 10.88 8.768 10.884 8.4 10.884C8.384 10.812 8.356 10.728 8.316 10.632C8.284 10.536 8.244 10.452 8.196 10.38C8.5 10.388 8.764 10.392 8.988 10.392C9.212 10.392 9.364 10.388 9.444 10.38C9.524 10.38 9.576 10.364 9.6 10.332C9.624 10.308 9.636 10.264 9.636 10.2V5.256ZM5.496 6.828H9.9V7.308H5.496V6.828ZM5.496 8.4H9.9V8.868H5.496V8.4ZM20.124 7.32H20.688V10.32H20.124V7.32ZM15.876 7.2H25.032V7.656H15.876V7.2ZM15.12 10.128H25.788V10.596H15.12V10.128ZM18.012 7.776L18.492 7.872C18.3 8.344 18.02 8.768 17.652 9.144C17.284 9.52 16.888 9.828 16.464 10.068C16.424 10.028 16.364 9.972 16.284 9.9C16.212 9.82 16.148 9.756 16.092 9.708C16.508 9.492 16.888 9.22 17.232 8.892C17.584 8.564 17.844 8.192 18.012 7.776ZM22.632 7.764L23.148 7.836C23.012 8.332 22.784 8.772 22.464 9.156C22.144 9.532 21.776 9.836 21.36 10.068C21.336 10.036 21.3 10 21.252 9.96C21.212 9.912 21.168 9.864 21.12 9.816C21.072 9.768 21.028 9.728 20.988 9.696C21.396 9.488 21.744 9.224 22.032 8.904C22.32 8.576 22.52 8.196 22.632 7.764ZM17.64 8.868L17.892 8.556C18.188 8.7 18.496 8.876 18.816 9.084C19.136 9.284 19.384 9.464 19.56 9.624L19.308 9.996C19.124 9.82 18.872 9.628 18.552 9.42C18.24 9.204 17.936 9.02 17.64 8.868ZM22.416 8.88L22.656 8.544C22.88 8.64 23.116 8.752 23.364 8.88C23.612 9.008 23.844 9.136 24.06 9.264C24.276 9.392 24.452 9.512 24.588 9.624L24.336 10.02C24.128 9.844 23.84 9.648 23.472 9.432C23.112 9.216 22.76 9.032 22.416 8.88ZM16.128 0.528H24.792V0.972H16.128V0.528ZM16.692 2.808H19.392V3.216H16.692V2.808ZM16.44 3.84H19.404V4.26H16.44V3.84ZM21.42 3.84H24.504V4.26H21.42V3.84ZM21.42 2.808H24.216V3.216H21.42V2.808ZM20.124 0.696H20.688V4.452H20.124V0.696ZM15.48 1.716H25.428V3.588H24.888V2.148H16.008V3.588H15.48V1.716ZM16.416 5.196V6.264H17.976V5.196H16.416ZM15.936 4.788H18.456V6.684H15.936V4.788ZM19.608 5.196V6.264H21.204V5.196H19.608ZM19.116 4.788H21.696V6.684H19.116V4.788ZM22.86 5.196V6.264H24.528V5.196H22.86ZM22.392 4.788H25.02V6.684H22.392V4.788Z" fill="white"/>
</svg>
