<svg preserveAspectRatio="none" width="100%" height="100%" overflow="visible" style="display: block;" viewBox="0 0 17.5 17.5" fill="none" xmlns="http://www.w3.org/2000/svg">
<g id="Union">
<path fill-rule="evenodd" clip-rule="evenodd" d="M7.5 3.33398C7.96009 3.33416 8.33301 3.70686 8.33301 4.16699C8.33283 4.62697 7.95998 4.99982 7.5 5H5.83301C4.91268 5.00018 4.16602 5.74663 4.16602 6.66699H10.833C11.2932 6.66699 11.666 7.03976 11.666 7.5C11.666 7.96024 11.2932 8.33301 10.833 8.33301H3.35059C3.34485 8.33313 3.33878 8.33398 3.33301 8.33398C3.32746 8.33398 3.32193 8.33312 3.31641 8.33301H1.66602V10.1992L5.8877 11.3721C6.00672 11.0575 6.31061 10.834 6.66699 10.834H10C10.3558 10.8341 10.6597 11.0572 10.7793 11.3711L15 10.1992V8.33301H14.167C13.7068 8.33301 13.334 7.96024 13.334 7.5C13.334 7.03976 13.7068 6.66699 14.167 6.66699H15C15.9198 6.66717 16.667 7.41213 16.667 8.33301V11.667C16.667 11.6725 16.6661 11.6781 16.666 11.6836V15.833C16.666 16.7534 15.9203 17.4998 15 17.5H1.66602C0.745841 17.4996 2.5769e-06 16.7533 0 15.833V8.33301C0.000175849 7.4129 0.745949 6.66734 1.66602 6.66699H2.5C2.5 4.82615 3.99221 3.33416 5.83301 3.33398H7.5ZM10.834 13.0859V13.334C10.8336 13.7938 10.4599 14.1668 10 14.167H6.66699C6.20697 14.167 5.83434 13.7939 5.83398 13.334V13.0859L1.66602 11.9287V15.833H15V11.9287L10.834 13.0859Z" fill="var(--fill-0, #7E7E7E)"/>
<path d="M12.6025 0.00390625C12.6563 1.74375 14.0233 3.14778 15.7305 3.22754C15.734 3.2277 15.7367 3.22754 15.7441 3.22754L17.5 3.23047V3.4873L15.7363 3.49121H15.7285C14.0391 3.57117 12.6831 4.94761 12.6045 6.66309C12.5532 6.66551 12.5011 6.66699 12.4492 6.66699C12.4144 6.66699 12.3793 6.66614 12.3447 6.66504C12.2663 4.93144 10.8836 3.5437 9.16992 3.48926C9.16759 3.4377 9.16699 3.38515 9.16699 3.33301C9.167 3.29838 9.16693 3.26387 9.16797 3.22949C10.8993 3.1755 12.2933 1.75993 12.3467 0.00195312C12.3806 0.000893603 12.415 4.30092e-06 12.4492 0C12.5005 0 12.5518 0.00154526 12.6025 0.00390625Z" fill="var(--fill-0, #7E7E7E)"/>
</g>
</svg>
