<svg preserveAspectRatio="none" width="100%" height="100%" overflow="visible" style="display: block;" viewBox="0 0 14.833 16.666" fill="none" xmlns="http://www.w3.org/2000/svg">
<path id="Union" d="M12 0C13.5645 0.000351632 14.833 1.26842 14.833 2.83301C14.833 4.3976 13.5645 5.66566 12 5.66602C11.2429 5.66602 10.5561 5.36761 10.0479 4.88379L5.58496 7.58691C5.63602 7.79973 5.66602 8.02153 5.66602 8.25C5.66599 8.50255 5.62941 8.74647 5.56738 8.97949L10.1494 11.6885C10.6459 11.2598 11.2926 11 12 11C13.5645 11.0004 14.833 12.2684 14.833 13.833C14.833 15.3976 13.5645 16.6657 12 16.666C10.4352 16.666 9.16602 15.3978 9.16602 13.833C9.16602 13.5798 9.20235 13.3351 9.26465 13.1016L4.68164 10.3936C4.18532 10.8219 3.54003 11.0829 2.83301 11.083C1.26831 11.083 0.000176223 9.81466 0 8.25C0 6.68519 1.2682 5.41602 2.83301 5.41602C3.56558 5.41612 4.23149 5.69693 4.73438 6.15332L9.22949 3.42969C9.18825 3.23731 9.16602 3.0377 9.16602 2.83301C9.16602 1.2682 10.4352 0 12 0ZM12 12.666C11.3557 12.666 10.833 13.1887 10.833 13.833C10.833 14.4773 11.3557 15 12 15C12.644 14.9996 13.166 14.4771 13.166 13.833C13.166 13.1889 12.644 12.6664 12 12.666ZM2.83301 7.08301C2.18868 7.08301 1.66602 7.60567 1.66602 8.25C1.66619 8.89418 2.18878 9.41602 2.83301 9.41602C3.47703 9.41578 3.99982 8.89404 4 8.25C4 7.60581 3.47714 7.08324 2.83301 7.08301ZM12 1.66602C11.3557 1.66602 10.833 2.18868 10.833 2.83301C10.833 3.47734 11.3557 4 12 4C12.644 3.99965 13.166 3.47712 13.166 2.83301C13.166 2.18889 12.644 1.66637 12 1.66602Z" fill="var(--fill-0, #7E7E7E)"/>
</svg>
