<svg preserveAspectRatio="none" width="100%" height="100%" overflow="visible" style="display: block;" viewBox="0 0 15.1875 17.9604" fill="none" xmlns="http://www.w3.org/2000/svg">
<path id="Union" d="M7.1084 1.12345C7.85193 -0.00367703 9.35703 -0.33641 10.5068 0.371499L12.4072 1.5424C13.5912 2.27155 13.9529 3.82672 13.2119 5.00333L6.70215 15.3402C6.43658 15.7618 6.05179 16.0928 5.59863 16.2934H14.3545C14.8145 16.2934 15.1872 16.6664 15.1875 17.1264C15.1875 17.5866 14.8147 17.9604 14.3545 17.9604H0.833008C0.37292 17.9602 0 17.5865 0 17.1264V12.6518C2.8541e-05 12.1625 0.143674 11.6833 0.413086 11.2748L7.1084 1.12345ZM1.80371 12.1928C1.71399 12.3289 1.66604 12.4888 1.66602 12.6518V15.9418L4.86914 14.7924C5.04419 14.7294 5.19285 14.609 5.29199 14.4516L10.001 6.97306L6.77539 4.65373L1.80371 12.1928ZM9.63281 1.79044C9.24958 1.55464 8.74781 1.66579 8.5 2.04142L7.69434 3.26212L10.8906 5.55998L11.8018 4.11466C12.0485 3.7225 11.9277 3.20433 11.5332 2.96134L9.63281 1.79044Z" fill="var(--fill-0, #7E7E7E)"/>
</svg>
