<svg preserveAspectRatio="none" width="100%" height="100%" overflow="visible" style="display: block;" viewBox="0 0 17.8979 18.2636" fill="none" xmlns="http://www.w3.org/2000/svg">
<g id="Union">
<path d="M1.66671 9.28908C1.66671 5.03962 4.81989 1.66667 8.99089 1.66667C11.572 1.66667 13.7569 3.02895 15.1412 5.06173H13.359C12.8988 5.06173 12.5257 5.43483 12.5257 5.89507C12.5257 6.35531 12.8988 6.7284 13.359 6.7284H17.0646C17.5248 6.7284 17.8979 6.35531 17.8979 5.89507V2.15726C17.8979 1.69702 17.5248 1.32393 17.0646 1.32393C16.6043 1.32393 16.2312 1.69702 16.2312 2.15726V3.72254C14.5693 1.51856 12.0234 0 8.99089 0C3.82194 0 4.3273e-05 4.19858 4.3273e-05 9.28908C4.3273e-05 9.74931 0.373139 10.1224 0.833377 10.1224C1.29361 10.1224 1.66671 9.74931 1.66671 9.28908Z" fill="var(--fill-0, white)"/>
<path d="M16.2312 8.97449C16.2312 13.2239 13.078 16.5969 8.90699 16.5969C6.3259 16.5969 4.14096 15.2346 2.75664 13.2018H4.53889C4.99912 13.2018 5.37222 12.8287 5.37222 12.3685C5.37222 11.9083 4.99912 11.5352 4.53889 11.5352H0.833334C0.373096 11.5352 0 11.9083 0 12.3685V16.1063C0 16.5665 0.373096 16.9396 0.833334 16.9396C1.29357 16.9396 1.66667 16.5665 1.66667 16.1063V14.541C3.32861 16.745 5.87445 18.2636 8.90699 18.2636C14.0759 18.2636 17.8978 14.065 17.8978 8.97449C17.8978 8.51426 17.5247 8.14116 17.0645 8.14116C16.6043 8.14116 16.2312 8.51426 16.2312 8.97449Z" fill="var(--fill-0, white)"/>
</g>
</svg>
