<svg preserveAspectRatio="none" width="100%" height="100%" overflow="visible" style="display: block;" viewBox="0 0 13.3952 13.1597" fill="none" xmlns="http://www.w3.org/2000/svg">
<path id="Union" d="M4.71794 2.1155C5.24833 1.58541 6.08591 1.55765 6.65447 2.01296L6.76482 2.11062L8.32439 3.67019C8.34686 3.64427 8.37006 3.61866 8.3947 3.59401L8.39958 3.58913C8.96519 3.03479 9.88072 3.02828 10.4465 3.59401L11.3185 4.46608C12.7359 5.88354 13.3736 7.13438 13.3947 8.32937C13.4155 9.51528 12.8216 10.4738 12.2131 11.2727C12.1992 11.2909 12.1848 11.3088 12.1691 11.3255C11.1526 12.4065 10.037 13.0828 8.84099 13.1536C8.01138 13.2026 7.2196 12.9554 6.47576 12.4622L4.55974 11.6565C4.54462 11.6501 4.52937 11.6426 4.51482 11.635L1.14665 9.87819L1.14568 9.87722C0.472638 9.52434 0.199469 8.6885 0.55681 8.00612C0.592609 7.93781 0.634762 7.87455 0.679857 7.81472C0.16989 7.41134 -0.00706073 6.68933 0.308763 6.0862C0.346024 6.01507 0.389385 5.94891 0.436693 5.88698C-0.00130579 5.47292 -0.138588 4.80376 0.157396 4.23854C0.410101 3.75611 0.910469 3.48076 1.42497 3.4944C1.45097 3.38509 1.48943 3.27656 1.54411 3.17214C1.87682 2.53702 2.63976 2.25921 3.29802 2.52956C3.66475 2.28837 4.11634 2.23345 4.52361 2.35866C4.57727 2.27438 4.64064 2.19428 4.71306 2.12038L4.71794 2.1155ZM5.78826 3.03444C5.74421 3.01727 5.69465 3.02768 5.66423 3.05495C5.61438 3.10715 5.62084 3.18416 5.66033 3.2239L8.28337 5.84694C8.54347 6.10721 8.54338 6.52998 8.28337 6.7903C8.249 6.82462 8.21033 6.85294 8.17107 6.87819C7.91141 7.05757 7.55367 7.03298 7.32244 6.80202L4.18279 3.66237L4.13982 3.63405C4.09571 3.617 4.04612 3.62715 4.01579 3.65456C3.96606 3.70664 3.97265 3.78369 4.01189 3.82351L4.65154 4.46315L4.71111 4.51589L7.16326 6.96804C7.42305 7.22827 7.42303 7.65017 7.16326 7.91042C7.06437 8.0093 6.94157 8.06927 6.81365 8.09304C6.79787 8.09612 6.78172 8.09598 6.76579 8.09792C6.73972 8.10085 6.71388 8.1049 6.68767 8.10476C6.51603 8.10544 6.34391 8.04127 6.21306 7.91042L3.75701 5.45437L3.73454 5.43972C3.69038 5.4225 3.64092 5.43278 3.61052 5.46022C3.56067 5.51243 3.56713 5.58943 3.60661 5.62917L6.05388 8.07644C6.31397 8.33679 6.31411 8.75952 6.05388 9.01979C6.05193 9.02174 6.04901 9.02276 6.04704 9.02468C6.04512 9.02666 6.04412 9.02955 6.04216 9.03151C5.78192 9.29165 5.36013 9.29148 5.09978 9.03151L3.44451 7.37624L3.40154 7.34792C3.35747 7.33074 3.30793 7.34112 3.27751 7.36843C3.22766 7.42063 3.23412 7.49764 3.27361 7.53737L6.424 10.6878C6.42546 10.6892 6.42645 10.6912 6.4279 10.6926L6.58513 10.8479C7.3708 11.5927 8.09824 11.8618 8.76286 11.8225C9.48242 11.7798 10.2912 11.3653 11.174 10.4339C11.7333 9.69462 12.074 9.05498 12.0617 8.3528C12.0493 7.65047 11.6777 6.71121 10.3761 5.40944L9.5031 4.5364C9.46333 4.49696 9.38633 4.49042 9.33415 4.5403C9.30783 4.56948 9.29826 4.61568 9.31267 4.65847L9.39275 4.73854C9.42516 4.77101 9.45339 4.80617 9.47771 4.84304L10.7248 6.09011C10.9847 6.35047 10.985 6.77226 10.7248 7.03249C10.4646 7.29271 10.0428 7.29246 9.7824 7.03249L8.3947 5.64577L8.38982 5.64089C8.34765 5.59788 8.30942 5.55189 8.27361 5.50515L5.83122 3.06276L5.78826 3.03444ZM1.86638 8.4905C1.78588 8.44865 1.67719 8.47842 1.63005 8.56765C1.58793 8.64807 1.61812 8.75663 1.7072 8.80397H1.70622L3.68865 9.83815L2.8947 9.04421L1.90447 8.50515C1.89227 8.49975 1.87837 8.49678 1.86638 8.4905ZM1.61833 6.57058C1.53773 6.52835 1.42918 6.55816 1.38201 6.64772C1.33983 6.72828 1.36973 6.83684 1.45915 6.88405L1.46794 6.88894L1.94255 7.14675C1.97146 7.01336 2.01887 6.88343 2.08513 6.76101C2.01353 6.75284 1.94194 6.73376 1.87419 6.69851L1.79216 6.65554C1.78621 6.6528 1.77951 6.65165 1.77361 6.6487L1.6281 6.57546L1.61833 6.57058ZM1.46697 4.72292C1.38636 4.6807 1.27781 4.71051 1.23064 4.80007C1.18844 4.88062 1.21836 4.98918 1.30779 5.0364H1.30681L2.24236 5.5237C2.24489 5.38068 2.26856 5.23823 2.31267 5.10085C2.3114 5.10063 2.31003 5.10108 2.30876 5.10085C2.28952 5.09742 2.27022 5.0945 2.25115 5.08913C2.23357 5.08418 2.21668 5.0772 2.19939 5.07058C2.18364 5.06455 2.167 5.06045 2.15154 5.053L1.48552 4.73171C1.47946 4.72879 1.47293 4.72604 1.46697 4.72292ZM2.61736 3.73366C2.58878 3.78821 2.59543 3.85508 2.62908 3.90749L2.66033 3.93093C2.65021 3.85215 2.64684 3.77289 2.64958 3.69362C2.63792 3.70564 2.62569 3.71786 2.61736 3.73366ZM11.1174 1.63015C11.358 1.35182 11.7793 1.32143 12.0578 1.56179C12.3361 1.80252 12.3667 2.22273 12.1261 2.50124L11.508 3.21608C11.2672 3.49462 10.8471 3.5252 10.5685 3.28444C10.2904 3.04361 10.2595 2.6234 10.5002 2.34499L11.1174 1.63015ZM9.41423 0.503193C9.54799 0.160234 9.93451 -0.00939886 10.2775 0.124287C10.6203 0.258095 10.79 0.644636 10.6564 0.987568L10.0568 2.52663C9.92299 2.8693 9.53636 3.03895 9.19353 2.90554C8.85055 2.77186 8.68108 2.38525 8.81462 2.04226L9.41423 0.503193ZM7.88396 0.000263452C8.25163 -0.00998531 8.55778 0.280061 8.56853 0.647724L8.59294 1.49538C8.60344 1.8634 8.31351 2.17041 7.94548 2.18093C7.57771 2.19112 7.27046 1.9013 7.25994 1.53347L7.2365 0.684834C7.2265 0.3173 7.51636 0.0109137 7.88396 0.000263452Z" fill="var(--fill-0, #7E7E7E)"/>
</svg>
