<svg preserveAspectRatio="none" width="100%" height="100%" overflow="visible" style="display: block;" viewBox="0 0 18.3333 16.6667" fill="none" xmlns="http://www.w3.org/2000/svg">
<path id="Union" fill-rule="evenodd" clip-rule="evenodd" d="M9.16667 1.66667C4.85907 1.66667 1.66667 4.49107 1.66667 7.64094C1.66667 9.45466 2.69476 11.1319 4.41487 12.2583C4.65 12.4123 4.79167 12.6744 4.79167 12.9554C4.79167 13.2164 4.69581 13.4295 4.62288 13.5613C4.54433 13.7032 4.44564 13.8331 4.35104 13.9447C4.16223 14.1675 3.91563 14.4031 3.66954 14.6278C3.56616 14.7222 3.46159 14.816 3.35677 14.9094C3.54475 14.8726 3.74474 14.8251 3.95287 14.7674C4.49396 14.6175 5.04855 14.4111 5.52463 14.1916C6.01515 13.9655 6.36702 13.7509 6.54018 13.6021C6.73686 13.433 7.00102 13.3652 7.2548 13.4186C7.86417 13.5467 8.50478 13.6152 9.16667 13.6152C13.4743 13.6152 16.6667 10.7908 16.6667 7.64094C16.6667 4.49107 13.4743 1.66667 9.16667 1.66667ZM0.928635 14.8905C0.928889 14.8902 0.929142 14.89 0.929396 14.8897L2.6984 13.0598C1.05804 11.6987 0 9.79311 0 7.64094C0 3.27134 4.26952 0 9.16667 0C14.0638 0 18.3333 3.27134 18.3333 7.64094C18.3333 12.0105 14.0638 15.2819 9.16667 15.2819C8.52344 15.2819 7.89483 15.2267 7.28756 15.1216C6.97945 15.3292 6.607 15.5279 6.22233 15.7052C5.6676 15.9609 5.02861 16.1989 4.39782 16.3736C3.77541 16.546 3.11795 16.669 2.53884 16.6666C2.02493 16.6645 1.26282 16.562 0.838694 15.9383C0.616666 15.6118 0.654218 15.1743 0.928635 14.8905Z" fill="var(--fill-0, #7E7E7E)"/>
</svg>
