<svg preserveAspectRatio="none" width="100%" height="100%" overflow="visible" style="display: block;" viewBox="0 0 24.7619 23.5238" fill="none" xmlns="http://www.w3.org/2000/svg">
<g id="Group 5735">
<g id="Vector" filter="url(#filter0_f_0_48739)">
<path d="M14.2381 21.6667C19.0246 21.6667 22.9048 17.6479 22.9048 12.6905C22.9048 7.73306 19.0246 3.71429 14.2381 3.71429C9.45163 3.71429 5.57143 7.73306 5.57143 12.6905C5.57143 17.6479 9.45163 21.6667 14.2381 21.6667Z" fill="var(--fill-0, #FF0807)"/>
</g>
<g id="Vector_2">
<path d="M4.6543 1.08203C8.08972 -0.567403 10.8618 0.257268 12.7822 1.49316C13.7448 2.11269 14.4936 2.83678 15.002 3.40625C15.1418 3.56297 15.2626 3.70839 15.3652 3.83594C15.147 3.74645 14.8756 3.65557 14.5557 3.59082C13.6408 3.40573 12.3393 3.42641 10.7725 4.22461C7.36332 5.95982 6.25114 8.25356 5.93555 10.249C5.77879 11.2404 5.81932 12.1527 5.86426 12.8721C5.88692 13.2347 5.90964 13.5416 5.91113 13.791C5.91266 14.0475 5.89058 14.2081 5.84473 14.2949C5.71978 14.5313 5.61221 14.6097 5.54492 14.6318C5.48558 14.6513 5.4212 14.6376 5.34473 14.583C5.26688 14.5273 5.19645 14.4417 5.14258 14.3633C5.11648 14.3253 5.09593 14.291 5.08203 14.2666C5.07511 14.2545 5.06974 14.2446 5.06641 14.2383C5.06476 14.2352 5.06321 14.2328 5.0625 14.2314L5.06152 14.2305L5.0459 14.1982L5.01758 14.1758L4.125 13.4883C2.14725 11.9613 0.430579 10.5051 0.1875 7.88574L0.166016 7.58984C0.0177407 4.57976 2.04438 2.33759 4.65527 1.08301L4.6543 1.08203Z" fill="url(#paint0_linear_0_48739)"/>
<path d="M4.6543 1.08203C8.08972 -0.567403 10.8618 0.257268 12.7822 1.49316C13.7448 2.11269 14.4936 2.83678 15.002 3.40625C15.1418 3.56297 15.2626 3.70839 15.3652 3.83594C15.147 3.74645 14.8756 3.65557 14.5557 3.59082C13.6408 3.40573 12.3393 3.42641 10.7725 4.22461C7.36332 5.95982 6.25114 8.25356 5.93555 10.249C5.77879 11.2404 5.81932 12.1527 5.86426 12.8721C5.88692 13.2347 5.90964 13.5416 5.91113 13.791C5.91266 14.0475 5.89058 14.2081 5.84473 14.2949C5.71978 14.5313 5.61221 14.6097 5.54492 14.6318C5.48558 14.6513 5.4212 14.6376 5.34473 14.583C5.26688 14.5273 5.19645 14.4417 5.14258 14.3633C5.11648 14.3253 5.09593 14.291 5.08203 14.2666C5.07511 14.2545 5.06974 14.2446 5.06641 14.2383C5.06476 14.2352 5.06321 14.2328 5.0625 14.2314L5.06152 14.2305L5.0459 14.1982L5.01758 14.1758L4.125 13.4883C2.14725 11.9613 0.430579 10.5051 0.1875 7.88574L0.166016 7.58984C0.0177407 4.57976 2.04438 2.33759 4.65527 1.08301L4.6543 1.08203Z" fill="url(#paint1_radial_0_48739)"/>
<path d="M4.6543 1.08203C8.08972 -0.567403 10.8618 0.257268 12.7822 1.49316C13.7448 2.11269 14.4936 2.83678 15.002 3.40625C15.1418 3.56297 15.2626 3.70839 15.3652 3.83594C15.147 3.74645 14.8756 3.65557 14.5557 3.59082C13.6408 3.40573 12.3393 3.42641 10.7725 4.22461C7.36332 5.95982 6.25114 8.25356 5.93555 10.249C5.77879 11.2404 5.81932 12.1527 5.86426 12.8721C5.88692 13.2347 5.90964 13.5416 5.91113 13.791C5.91266 14.0475 5.89058 14.2081 5.84473 14.2949C5.71978 14.5313 5.61221 14.6097 5.54492 14.6318C5.48558 14.6513 5.4212 14.6376 5.34473 14.583C5.26688 14.5273 5.19645 14.4417 5.14258 14.3633C5.11648 14.3253 5.09593 14.291 5.08203 14.2666C5.07511 14.2545 5.06974 14.2446 5.06641 14.2383C5.06476 14.2352 5.06321 14.2328 5.0625 14.2314L5.06152 14.2305L5.0459 14.1982L5.01758 14.1758L4.125 13.4883C2.14725 11.9613 0.430579 10.5051 0.1875 7.88574L0.166016 7.58984C0.0177407 4.57976 2.04438 2.33759 4.65527 1.08301L4.6543 1.08203Z" stroke="var(--stroke-0, #5E5E5E)" stroke-width="0.31746"/>
</g>
<path id="Vector_3" d="M14.2406 22.2221C19.4985 22.2221 23.7609 17.9239 23.7609 12.6219C23.7609 7.31992 19.4985 3.02179 14.2406 3.02179C8.98263 3.02179 4.72024 7.31992 4.72024 12.6219C4.72024 17.9239 8.98263 22.2221 14.2406 22.2221Z" fill="var(--fill-0, #1C1C1C)"/>
<path id="Vector_4" d="M14.2407 3.33917C19.3208 3.33927 23.4439 7.49324 23.4439 12.6224C23.4436 17.7513 19.3206 21.9045 14.2407 21.9046C9.16078 21.9046 5.03786 17.7514 5.03762 12.6224C5.03762 7.49318 9.16064 3.33917 14.2407 3.33917Z" fill="var(--fill-0, #E84645)" stroke="var(--stroke-0, #3B3B3B)" stroke-width="0.634921"/>
<path id="Vector_5" d="M14.2407 3.33917C19.3208 3.33927 23.4439 7.49324 23.4439 12.6224C23.4436 17.7513 19.3206 21.9045 14.2407 21.9046C9.16078 21.9046 5.03786 17.7514 5.03762 12.6224C5.03762 7.49318 9.16064 3.33917 14.2407 3.33917Z" fill="var(--fill-0, #FF2322)" stroke="var(--stroke-0, #4F4F4F)" stroke-width="0.634921"/>
<path id="Vector_6" d="M14.2842 4.28576C19.1215 4.28576 23.0145 8.06738 23.0146 12.6979C23.0146 17.3285 19.1216 21.111 14.2842 21.111C9.44689 21.1108 5.55469 17.3284 5.55469 12.6979C5.55481 8.06747 9.44697 4.28591 14.2842 4.28576Z" stroke="url(#paint2_linear_0_48739)" stroke-width="0.952381"/>
<g id="Ellipse 672" filter="url(#filter1_f_0_48739)">
<path d="M19.2328 12.4365C18.3251 13.4663 18.1974 11.3687 16.8243 10.1585C15.4513 8.9482 13.353 9.08356 14.2607 8.05381C15.1684 7.02405 17.0172 7.17037 18.3903 8.38063C19.7633 9.59088 20.1405 11.4068 19.2328 12.4365Z" fill="var(--fill-0, #FF8888)"/>
</g>
<path id="Vector_7" d="M15.3173 21.1237C19.6353 20.5078 22.655 16.6377 22.0619 12.4796C20.1727 16.2821 17.5401 18.0372 14.0304 18.0372C9.54638 18.0372 7.38595 15.9481 6.42504 14.7099C7.01811 18.868 10.9993 21.7395 15.3173 21.1237Z" fill="url(#paint3_linear_0_48739)"/>
<path id="Vector_8" d="M10.5141 0.268415C10.5141 0.268415 12.5114 0.537294 17.3714 3.2227C22.2313 5.9081 23.7121 7.19838 24.0962 12.3527C24.2957 15.0381 23.4975 14.3668 23.4975 14.3668C23.4975 14.3668 22.4326 13.9643 22.2984 11.9503C22.1643 9.93621 18.77 10.271 18.2367 8.5935C17.7034 6.91597 15.6407 2.41606 10.5141 0.268415Z" fill="url(#paint4_linear_0_48739)"/>
<g id="Ellipse 674" filter="url(#filter2_f_0_48739)">
<ellipse cx="15.2371" cy="14.9204" rx="1.26984" ry="0.31746" fill="var(--fill-0, #FFDFDF)"/>
</g>
<g id="Ellipse 675" filter="url(#filter3_f_0_48739)">
<ellipse cx="15.2391" cy="11.1109" rx="4.44444" ry="4.12698" fill="var(--fill-0, white)" fill-opacity="0.1"/>
</g>
</g>
<defs>
<filter id="filter0_f_0_48739" x="3.71429" y="1.85714" width="21.0476" height="21.6667" filterUnits="userSpaceOnUse" color-interpolation-filters="sRGB">
<feFlood flood-opacity="0" result="BackgroundImageFix"/>
<feBlend mode="normal" in="SourceGraphic" in2="BackgroundImageFix" result="shape"/>
<feGaussianBlur stdDeviation="0.928571" result="effect1_foregroundBlur_0_48739"/>
</filter>
<filter id="filter1_f_0_48739" x="12.7702" y="6.09802" width="8.22691" height="7.88422" filterUnits="userSpaceOnUse" color-interpolation-filters="sRGB">
<feFlood flood-opacity="0" result="BackgroundImageFix"/>
<feBlend mode="normal" in="SourceGraphic" in2="BackgroundImageFix" result="shape"/>
<feGaussianBlur stdDeviation="0" result="effect1_foregroundBlur_0_48739"/>
</filter>
<filter id="filter2_f_0_48739" x="13.3323" y="13.968" width="3.80952" height="1.90476" filterUnits="userSpaceOnUse" color-interpolation-filters="sRGB">
<feFlood flood-opacity="0" result="BackgroundImageFix"/>
<feBlend mode="normal" in="SourceGraphic" in2="BackgroundImageFix" result="shape"/>
<feGaussianBlur stdDeviation="0" result="effect1_foregroundBlur_0_48739"/>
</filter>
<filter id="filter3_f_0_48739" x="8.25496" y="4.44425" width="13.9683" height="13.3333" filterUnits="userSpaceOnUse" color-interpolation-filters="sRGB">
<feFlood flood-opacity="0" result="BackgroundImageFix"/>
<feBlend mode="normal" in="SourceGraphic" in2="BackgroundImageFix" result="shape"/>
<feGaussianBlur stdDeviation="0" result="effect1_foregroundBlur_0_48739"/>
</filter>
<linearGradient id="paint0_linear_0_48739" x1="3.49206" y1="1.90476" x2="9.52381" y2="12.6984" gradientUnits="userSpaceOnUse">
<stop stop-color="#4F4F4F"/>
<stop offset="1" stop-color="#BD1818"/>
</linearGradient>
<radialGradient id="paint1_radial_0_48739" cx="0" cy="0" r="1" gradientTransform="matrix(5.71429 6.34921 -6.83507 4.24532 2.53968 -0.000310103)" gradientUnits="userSpaceOnUse">
<stop stop-color="#B40807"/>
<stop offset="1" stop-color="#560505"/>
</radialGradient>
<linearGradient id="paint2_linear_0_48739" x1="12.6405" y1="21.9044" x2="12.334" y2="4.76118" gradientUnits="userSpaceOnUse">
<stop stop-color="#FF8E8E"/>
<stop offset="1" stop-color="#FF2322"/>
</linearGradient>
<linearGradient id="paint3_linear_0_48739" x1="11.6901" y1="20.6697" x2="21.6352" y2="15.1121" gradientUnits="userSpaceOnUse">
<stop stop-color="#D40100"/>
<stop offset="1" stop-color="#FF2322"/>
</linearGradient>
<linearGradient id="paint4_linear_0_48739" x1="28.2547" y1="13.6501" x2="18.096" y2="0.316777" gradientUnits="userSpaceOnUse">
<stop stop-color="#7B2121"/>
<stop offset="1" stop-color="#0E0E0E"/>
</linearGradient>
</defs>
</svg>
