<svg preserveAspectRatio="none" width="100%" height="100%" overflow="visible" style="display: block;" viewBox="0 0 25.9048 24.6667" fill="none" xmlns="http://www.w3.org/2000/svg">
<g id="Group 5735">
<g id="Vector" filter="url(#filter0_f_0_47803)">
<path d="M14.2381 21.6667C19.0246 21.6667 22.9048 17.6479 22.9048 12.6905C22.9048 7.73308 19.0246 3.71431 14.2381 3.71431C9.45163 3.71431 5.57143 7.73308 5.57143 12.6905C5.57143 17.6479 9.45163 21.6667 14.2381 21.6667Z" fill="var(--fill-0, #FFE607)"/>
</g>
<g id="Vector_2">
<path d="M4.69434 1.16506C8.09493 -0.467597 10.8325 0.3467 12.7324 1.56936C13.6864 2.18329 14.429 2.90153 14.9336 3.46682C14.9842 3.52356 15.0304 3.58048 15.0762 3.63381C14.9247 3.58514 14.7575 3.53809 14.5742 3.501C13.6401 3.31194 12.3177 3.33552 10.7314 4.14357C7.29527 5.89248 6.16574 8.21107 5.8457 10.2344C5.68722 11.2365 5.72842 12.1574 5.77344 12.8779C5.79624 13.243 5.81885 13.5459 5.82031 13.792C5.82183 14.049 5.79767 14.1876 5.76367 14.252C5.64341 14.4796 5.55108 14.5335 5.5166 14.5449C5.4949 14.552 5.46131 14.5537 5.39844 14.5088C5.33305 14.4621 5.26919 14.3865 5.21777 14.3115C5.19344 14.2761 5.17404 14.2443 5.16113 14.2217C5.15472 14.2104 5.14942 14.2009 5.14648 14.1953C5.14525 14.193 5.14407 14.1915 5.14355 14.1904V14.1895L5.11816 14.1387L5.07324 14.1035L4.17871 13.4141C2.2022 11.8872 0.517306 10.4548 0.27832 7.87697L0.257812 7.58498L0.25 7.30959C0.237704 4.67011 1.94016 2.64803 4.21582 1.41018L4.69434 1.16506Z" fill="url(#paint0_linear_0_47803)"/>
<path d="M4.69434 1.16506C8.09493 -0.467597 10.8325 0.3467 12.7324 1.56936C13.6864 2.18329 14.429 2.90153 14.9336 3.46682C14.9842 3.52356 15.0304 3.58048 15.0762 3.63381C14.9247 3.58514 14.7575 3.53809 14.5742 3.501C13.6401 3.31194 12.3177 3.33552 10.7314 4.14357C7.29527 5.89248 6.16574 8.21107 5.8457 10.2344C5.68722 11.2365 5.72842 12.1574 5.77344 12.8779C5.79624 13.243 5.81885 13.5459 5.82031 13.792C5.82183 14.049 5.79767 14.1876 5.76367 14.252C5.64341 14.4796 5.55108 14.5335 5.5166 14.5449C5.4949 14.552 5.46131 14.5537 5.39844 14.5088C5.33305 14.4621 5.26919 14.3865 5.21777 14.3115C5.19344 14.2761 5.17404 14.2443 5.16113 14.2217C5.15472 14.2104 5.14942 14.2009 5.14648 14.1953C5.14525 14.193 5.14407 14.1915 5.14355 14.1904V14.1895L5.11816 14.1387L5.07324 14.1035L4.17871 13.4141C2.2022 11.8872 0.517306 10.4548 0.27832 7.87697L0.257812 7.58498L0.25 7.30959C0.237704 4.67011 1.94016 2.64803 4.21582 1.41018L4.69434 1.16506Z" fill="url(#paint1_radial_0_47803)"/>
<path d="M4.69434 1.16506C8.09493 -0.467597 10.8325 0.3467 12.7324 1.56936C13.6864 2.18329 14.429 2.90153 14.9336 3.46682C14.9842 3.52356 15.0304 3.58048 15.0762 3.63381C14.9247 3.58514 14.7575 3.53809 14.5742 3.501C13.6401 3.31194 12.3177 3.33552 10.7314 4.14357C7.29527 5.89248 6.16574 8.21107 5.8457 10.2344C5.68722 11.2365 5.72842 12.1574 5.77344 12.8779C5.79624 13.243 5.81885 13.5459 5.82031 13.792C5.82183 14.049 5.79767 14.1876 5.76367 14.252C5.64341 14.4796 5.55108 14.5335 5.5166 14.5449C5.4949 14.552 5.46131 14.5537 5.39844 14.5088C5.33305 14.4621 5.26919 14.3865 5.21777 14.3115C5.19344 14.2761 5.17404 14.2443 5.16113 14.2217C5.15472 14.2104 5.14942 14.2009 5.14648 14.1953C5.14525 14.193 5.14407 14.1915 5.14355 14.1904V14.1895L5.11816 14.1387L5.07324 14.1035L4.17871 13.4141C2.2022 11.8872 0.517306 10.4548 0.27832 7.87697L0.257812 7.58498L0.25 7.30959C0.237704 4.67011 1.94016 2.64803 4.21582 1.41018L4.69434 1.16506Z" stroke="var(--stroke-0, #5E5E5E)" stroke-width="0.5"/>
</g>
<path id="Vector_3" d="M14.2406 22.2221C19.4985 22.2221 23.7609 17.924 23.7609 12.622C23.7609 7.31994 19.4985 3.02181 14.2406 3.02181C8.98263 3.02181 4.72024 7.31994 4.72024 12.622C4.72024 17.924 8.98263 22.2221 14.2406 22.2221Z" fill="var(--fill-0, #1C1C1C)"/>
<path id="Vector_4" d="M14.2407 3.5345C19.2113 3.5346 23.2476 7.59962 23.2476 12.6224C23.2473 17.645 19.2112 21.7092 14.2407 21.7093C9.27021 21.7093 5.23317 17.645 5.23293 12.6224C5.23293 7.59955 9.27007 3.5345 14.2407 3.5345Z" fill="var(--fill-0, #E84645)" stroke="var(--stroke-0, #3B3B3B)" stroke-width="1.02564"/>
<path id="Vector_5" d="M14.2407 3.52181C19.2185 3.52191 23.2613 7.59264 23.2613 12.6224C23.261 17.6519 19.2184 21.7219 14.2407 21.722C9.26303 21.722 5.22047 17.652 5.22024 12.6224C5.22024 7.59257 9.26289 3.52181 14.2407 3.52181Z" fill="var(--fill-0, #FFEE00)" stroke="var(--stroke-0, #3B3B3B)"/>
<path id="Vector_6" d="M14.2842 4.55922C18.9794 4.55922 22.7411 8.22759 22.7412 12.6979C22.7412 17.1683 18.9795 20.8366 14.2842 20.8366C9.58898 20.8364 5.82813 17.1682 5.82813 12.6979C5.82825 8.22769 9.58906 4.55937 14.2842 4.55922Z" stroke="url(#paint2_linear_0_47803)" stroke-width="1.5"/>
<g id="Ellipse 676" filter="url(#filter1_f_0_47803)">
<path d="M19.1858 12.3637C18.3009 13.3677 18.1763 11.3226 16.8376 10.1426C15.4989 8.96261 13.453 9.09459 14.338 8.09058C15.223 7.08657 17.0257 7.22923 18.3644 8.40923C19.7031 9.58923 20.0708 11.3597 19.1858 12.3637Z" fill="var(--fill-0, #FFFAA5)"/>
</g>
<path id="Vector_7" d="M15.3173 21.1237C19.6353 20.5078 22.655 16.6377 22.0619 12.4797C20.1727 16.2822 17.5401 18.0372 14.0304 18.0372C9.54638 18.0372 7.38595 15.9481 6.42504 14.71C7.01811 18.868 10.9993 21.7396 15.3173 21.1237Z" fill="url(#paint3_linear_0_47803)"/>
<path id="Vector_8" d="M10.5141 0.268435C10.5141 0.268435 12.5114 0.537313 17.3714 3.22272C22.2313 5.90812 23.7121 7.1984 24.0962 12.3528C24.2957 15.0382 23.4975 14.3668 23.4975 14.3668C23.4975 14.3668 22.4326 13.9643 22.2984 11.9503C22.1642 9.93623 18.77 10.2711 18.2367 8.59352C17.7034 6.91599 15.6407 2.41608 10.5141 0.268435Z" fill="url(#paint4_linear_0_47803)"/>
<g id="Ellipse 674" filter="url(#filter2_f_0_47803)">
<ellipse cx="15.2371" cy="14.9204" rx="1.26984" ry="0.31746" fill="var(--fill-0, #FFDFDF)"/>
</g>
<g id="Ellipse 675" filter="url(#filter3_f_0_47803)">
<ellipse cx="15.2391" cy="11.1109" rx="4.44444" ry="4.12698" fill="var(--fill-0, white)" fill-opacity="0.1"/>
</g>
</g>
<defs>
<filter id="filter0_f_0_47803" x="2.57143" y="0.714306" width="23.3333" height="23.9524" filterUnits="userSpaceOnUse" color-interpolation-filters="sRGB">
<feFlood flood-opacity="0" result="BackgroundImageFix"/>
<feBlend mode="normal" in="SourceGraphic" in2="BackgroundImageFix" result="shape"/>
<feGaussianBlur stdDeviation="1.5" result="effect1_foregroundBlur_0_47803"/>
</filter>
<filter id="filter1_f_0_47803" x="12.1229" y="5.42178" width="9.54505" height="9.21092" filterUnits="userSpaceOnUse" color-interpolation-filters="sRGB">
<feFlood flood-opacity="0" result="BackgroundImageFix"/>
<feBlend mode="normal" in="SourceGraphic" in2="BackgroundImageFix" result="shape"/>
<feGaussianBlur stdDeviation="0" result="effect1_foregroundBlur_0_47803"/>
</filter>
<filter id="filter2_f_0_47803" x="12.9416" y="13.5773" width="4.59096" height="2.6862" filterUnits="userSpaceOnUse" color-interpolation-filters="sRGB">
<feFlood flood-opacity="0" result="BackgroundImageFix"/>
<feBlend mode="normal" in="SourceGraphic" in2="BackgroundImageFix" result="shape"/>
<feGaussianBlur stdDeviation="0" result="effect1_foregroundBlur_0_47803"/>
</filter>
<filter id="filter3_f_0_47803" x="6.69208" y="2.88139" width="17.094" height="16.4591" filterUnits="userSpaceOnUse" color-interpolation-filters="sRGB">
<feFlood flood-opacity="0" result="BackgroundImageFix"/>
<feBlend mode="normal" in="SourceGraphic" in2="BackgroundImageFix" result="shape"/>
<feGaussianBlur stdDeviation="0" result="effect1_foregroundBlur_0_47803"/>
</filter>
<linearGradient id="paint0_linear_0_47803" x1="3.49206" y1="1.90478" x2="9.52381" y2="12.6984" gradientUnits="userSpaceOnUse">
<stop stop-color="#4F4F4F"/>
<stop offset="1" stop-color="#BD7E18"/>
</linearGradient>
<radialGradient id="paint1_radial_0_47803" cx="0" cy="0" r="1" gradientTransform="matrix(5.07936 5.71429 -6.14103 3.76192 3.1746 1.90447)" gradientUnits="userSpaceOnUse">
<stop stop-color="#C47C07"/>
<stop offset="1" stop-color="#5A4A05"/>
</radialGradient>
<linearGradient id="paint2_linear_0_47803" x1="12.6405" y1="21.9045" x2="12.334" y2="4.7612" gradientUnits="userSpaceOnUse">
<stop stop-color="#FFFBB7"/>
<stop offset="1" stop-color="#FFF200"/>
</linearGradient>
<linearGradient id="paint3_linear_0_47803" x1="11.6901" y1="20.6697" x2="21.6352" y2="15.1122" gradientUnits="userSpaceOnUse">
<stop stop-color="#F6EA07"/>
<stop offset="1" stop-color="#D7CD11"/>
</linearGradient>
<linearGradient id="paint4_linear_0_47803" x1="28.2547" y1="13.6501" x2="18.096" y2="0.316799" gradientUnits="userSpaceOnUse">
<stop stop-color="#8D8246"/>
<stop offset="1"/>
</linearGradient>
</defs>
</svg>
