<svg preserveAspectRatio="none" width="100%" height="100%" overflow="visible" style="display: block;" viewBox="0 0 32.381 30.7619" fill="none" xmlns="http://www.w3.org/2000/svg">
<g id="Group 5735">
<g id="Vector" filter="url(#filter0_f_0_326)">
<path d="M18.619 28.3333C24.8783 28.3333 29.9524 23.078 29.9524 16.5952C29.9524 10.1125 24.8783 4.85714 18.619 4.85714C12.3598 4.85714 7.28571 10.1125 7.28571 16.5952C7.28571 23.078 12.3598 28.3333 18.619 28.3333Z" fill="var(--fill-0, #18FF07)"/>
</g>
<g id="Vector_2">
<path d="M6.08496 1.41113C10.5793 -0.746565 14.2053 0.33136 16.7178 1.94824C17.9771 2.75873 18.9571 3.70523 19.6221 4.4502C19.8106 4.66137 19.9726 4.85686 20.1094 5.02734C19.8213 4.90803 19.4609 4.78658 19.0342 4.7002C17.8389 4.45828 16.1379 4.48597 14.0898 5.5293C9.63309 7.79765 8.17906 10.7954 7.7666 13.4033C7.56167 14.6994 7.61505 15.8923 7.67383 16.833C7.70345 17.3071 7.73341 17.7087 7.73535 18.0352C7.73731 18.3703 7.70807 18.5806 7.64746 18.6953C7.4836 19.0055 7.34183 19.1093 7.25195 19.1387C7.17232 19.1646 7.08696 19.1461 6.98633 19.0742C6.88373 19.0009 6.79131 18.888 6.7207 18.7852C6.6865 18.7353 6.65885 18.6911 6.64062 18.6592C6.63154 18.6432 6.6245 18.6304 6.62012 18.6221C6.61796 18.618 6.61617 18.6151 6.61523 18.6133V18.6113L6.59473 18.5693L6.55762 18.541C3.41467 16.1005 0.418128 14.1241 0.212891 9.92578C0.018851 5.98665 2.66966 3.05225 6.08496 1.41113Z" fill="url(#paint0_linear_0_326)"/>
<path d="M6.08496 1.41113C10.5793 -0.746565 14.2053 0.33136 16.7178 1.94824C17.9771 2.75873 18.9571 3.70523 19.6221 4.4502C19.8106 4.66137 19.9726 4.85686 20.1094 5.02734C19.8213 4.90803 19.4609 4.78658 19.0342 4.7002C17.8389 4.45828 16.1379 4.48597 14.0898 5.5293C9.63309 7.79765 8.17906 10.7954 7.7666 13.4033C7.56167 14.6994 7.61505 15.8923 7.67383 16.833C7.70345 17.3071 7.73341 17.7087 7.73535 18.0352C7.73731 18.3703 7.70807 18.5806 7.64746 18.6953C7.4836 19.0055 7.34183 19.1093 7.25195 19.1387C7.17232 19.1646 7.08696 19.1461 6.98633 19.0742C6.88373 19.0009 6.79131 18.888 6.7207 18.7852C6.6865 18.7353 6.65885 18.6911 6.64062 18.6592C6.63154 18.6432 6.6245 18.6304 6.62012 18.6221C6.61796 18.618 6.61617 18.6151 6.61523 18.6133V18.6113L6.59473 18.5693L6.55762 18.541C3.41467 16.1005 0.418128 14.1241 0.212891 9.92578C0.018851 5.98665 2.66966 3.05225 6.08496 1.41113Z" fill="url(#paint1_radial_0_326)"/>
<path d="M6.08496 1.41113C10.5793 -0.746565 14.2053 0.33136 16.7178 1.94824C17.9771 2.75873 18.9571 3.70523 19.6221 4.4502C19.8106 4.66137 19.9726 4.85686 20.1094 5.02734C19.8213 4.90803 19.4609 4.78658 19.0342 4.7002C17.8389 4.45828 16.1379 4.48597 14.0898 5.5293C9.63309 7.79765 8.17906 10.7954 7.7666 13.4033C7.56167 14.6994 7.61505 15.8923 7.67383 16.833C7.70345 17.3071 7.73341 17.7087 7.73535 18.0352C7.73731 18.3703 7.70807 18.5806 7.64746 18.6953C7.4836 19.0055 7.34183 19.1093 7.25195 19.1387C7.17232 19.1646 7.08696 19.1461 6.98633 19.0742C6.88373 19.0009 6.79131 18.888 6.7207 18.7852C6.6865 18.7353 6.65885 18.6911 6.64062 18.6592C6.63154 18.6432 6.6245 18.6304 6.62012 18.6221C6.61796 18.618 6.61617 18.6151 6.61523 18.6133V18.6113L6.59473 18.5693L6.55762 18.541C3.41467 16.1005 0.418128 14.1241 0.212891 9.92578C0.018851 5.98665 2.66966 3.05225 6.08496 1.41113Z" stroke="var(--stroke-0, #5E5E5E)" stroke-width="0.404762"/>
</g>
<path id="Vector_3" d="M18.6223 29.0596C25.498 29.0596 31.0719 23.439 31.0719 16.5056C31.0719 9.5722 25.498 3.95157 18.6223 3.95157C11.7465 3.95157 6.17262 9.5722 6.17262 16.5056C6.17262 23.439 11.7465 29.0596 18.6223 29.0596Z" fill="var(--fill-0, #1C1C1C)"/>
<path id="Vector_4" d="M18.6218 4.36661C25.2649 4.36661 30.6568 9.79803 30.657 16.5053C30.657 23.2127 25.2651 28.6449 18.6218 28.6449C11.9788 28.6447 6.58766 23.2125 6.58766 16.5053C6.58783 9.79817 11.9789 4.36684 18.6218 4.36661Z" fill="var(--fill-0, #E84645)" stroke="var(--stroke-0, #3B3B3B)" stroke-width="0.830281"/>
<path id="Vector_5" d="M18.6218 4.35586C25.2708 4.35586 30.6666 9.79238 30.6668 16.5053C30.6668 23.2183 25.2709 28.6547 18.6218 28.6547C11.973 28.6545 6.57692 23.2182 6.57692 16.5053C6.57709 9.79252 11.9731 4.3561 18.6218 4.35586Z" fill="var(--fill-0, #8AEC01)" stroke="var(--stroke-0, #3B3B3B)" stroke-width="0.809524"/>
<path id="Vector_6" d="M18.6797 5.58868C25.0136 5.58868 30.1113 10.5408 30.1113 16.6053C30.1113 22.6697 25.0136 27.6219 18.6797 27.6219C12.3458 27.6219 7.2481 22.6697 7.24805 16.6053C7.24805 10.5408 12.3458 5.58869 18.6797 5.58868Z" stroke="url(#paint2_linear_0_326)" stroke-width="1.21429"/>
<g id="Ellipse 676" filter="url(#filter1_f_0_326)">
<path d="M25.0892 16.1679C23.9319 17.4809 23.769 14.8065 22.0184 13.2634C20.2678 11.7203 17.5924 11.8929 18.7498 10.58C19.9071 9.26702 22.2644 9.45358 24.015 10.9967C25.7655 12.5397 26.2465 14.855 25.0892 16.1679Z" fill="var(--fill-0, #BCFF5F)"/>
</g>
<path id="Vector_7" d="M20.0304 27.6233C25.677 26.8179 29.6258 21.757 28.8502 16.3195C26.3796 21.292 22.9371 23.5871 18.3474 23.5871C12.4837 23.5871 9.65855 20.8552 8.40197 19.2361C9.17753 24.6736 14.3837 28.4286 20.0304 27.6233Z" fill="url(#paint3_linear_0_326)"/>
<path id="Vector_8" d="M13.7493 0.351004C13.7493 0.351004 16.3611 0.702615 22.7164 4.2143C29.0717 7.72598 31.0082 9.41327 31.5103 16.1536C31.7713 19.6653 30.7275 18.7873 30.7275 18.7873C30.7275 18.7873 29.3349 18.261 29.1595 15.6273C28.984 12.9935 24.5454 13.4314 23.848 11.2377C23.1506 9.04396 20.4533 3.15946 13.7493 0.351004Z" fill="url(#paint4_linear_0_326)"/>
<g id="Ellipse 674" filter="url(#filter2_f_0_326)">
<ellipse cx="19.9254" cy="19.5113" rx="1.66056" ry="0.41514" fill="var(--fill-0, #FFDFDF)"/>
</g>
<g id="Ellipse 675" filter="url(#filter3_f_0_326)">
<ellipse cx="19.928" cy="14.5297" rx="5.81197" ry="5.39682" fill="var(--fill-0, white)" fill-opacity="0.1"/>
</g>
</g>
<defs>
<filter id="filter0_f_0_326" x="4.85714" y="2.42857" width="27.5238" height="28.3333" filterUnits="userSpaceOnUse" color-interpolation-filters="sRGB">
<feFlood flood-opacity="0" result="BackgroundImageFix"/>
<feBlend mode="normal" in="SourceGraphic" in2="BackgroundImageFix" result="shape"/>
<feGaussianBlur stdDeviation="1.21429" result="effect1_foregroundBlur_0_326"/>
</filter>
<filter id="filter1_f_0_326" x="16.8494" y="8.08633" width="10.4893" height="10.0524" filterUnits="userSpaceOnUse" color-interpolation-filters="sRGB">
<feFlood flood-opacity="0" result="BackgroundImageFix"/>
<feBlend mode="normal" in="SourceGraphic" in2="BackgroundImageFix" result="shape"/>
<feGaussianBlur stdDeviation="0" result="effect1_foregroundBlur_0_326"/>
</filter>
<filter id="filter2_f_0_326" x="17.4346" y="18.2659" width="4.98168" height="2.49084" filterUnits="userSpaceOnUse" color-interpolation-filters="sRGB">
<feFlood flood-opacity="0" result="BackgroundImageFix"/>
<feBlend mode="normal" in="SourceGraphic" in2="BackgroundImageFix" result="shape"/>
<feGaussianBlur stdDeviation="0" result="effect1_foregroundBlur_0_326"/>
</filter>
<filter id="filter3_f_0_326" x="10.7949" y="5.81171" width="18.2662" height="17.4359" filterUnits="userSpaceOnUse" color-interpolation-filters="sRGB">
<feFlood flood-opacity="0" result="BackgroundImageFix"/>
<feBlend mode="normal" in="SourceGraphic" in2="BackgroundImageFix" result="shape"/>
<feGaussianBlur stdDeviation="0" result="effect1_foregroundBlur_0_326"/>
</filter>
<linearGradient id="paint0_linear_0_326" x1="4.56654" y1="2.49084" x2="12.4542" y2="16.6056" gradientUnits="userSpaceOnUse">
<stop stop-color="#4F4F4F"/>
<stop offset="1" stop-color="#4ABD18"/>
</linearGradient>
<radialGradient id="paint1_radial_0_326" cx="0" cy="0" r="1" gradientTransform="matrix(8.30281 9.96337 -10.6156 6.04599 2.49084 -0.000404621)" gradientUnits="userSpaceOnUse">
<stop stop-color="#4DAF07"/>
<stop offset="1" stop-color="#0D5605"/>
</radialGradient>
<linearGradient id="paint2_linear_0_326" x1="16.5299" y1="28.6443" x2="16.129" y2="6.22616" gradientUnits="userSpaceOnUse">
<stop stop-color="#D8FFA2"/>
<stop offset="1" stop-color="#8AEC01"/>
</linearGradient>
<linearGradient id="paint3_linear_0_326" x1="15.287" y1="27.0296" x2="28.2922" y2="19.762" gradientUnits="userSpaceOnUse">
<stop stop-color="#78CD00"/>
<stop offset="1" stop-color="#8AEC01"/>
</linearGradient>
<linearGradient id="paint4_linear_0_326" x1="36.9485" y1="17.8501" x2="23.664" y2="0.414249" gradientUnits="userSpaceOnUse">
<stop stop-color="#5B8D46"/>
<stop offset="1"/>
</linearGradient>
</defs>
</svg>
