<svg preserveAspectRatio="none" width="100%" height="100%" overflow="visible" style="display: block;" viewBox="0 0 32.9524 31.3333" fill="none" xmlns="http://www.w3.org/2000/svg">
<g id="Group 5735">
<g id="Vector" filter="url(#filter0_f_0_282)">
<path d="M18.619 28.3333C24.8783 28.3333 29.9524 23.078 29.9524 16.5952C29.9524 10.1125 24.8783 4.85714 18.619 4.85714C12.3598 4.85714 7.28571 10.1125 7.28571 16.5952C7.28571 23.078 12.3598 28.3333 18.619 28.3333Z" fill="var(--fill-0, #FFE607)"/>
</g>
<g id="Vector_2">
<path d="M6.10547 1.4541C10.5817 -0.694947 14.1896 0.378292 16.6914 1.98828C17.9463 2.79587 18.9228 3.73961 19.5859 4.48242C19.7243 4.63745 19.8485 4.78387 19.959 4.91797C19.7001 4.82048 19.3938 4.72529 19.043 4.6543C17.8377 4.41041 16.1262 4.43811 14.0684 5.48633C9.59754 7.76184 8.13448 10.7731 7.71973 13.3955C7.51386 14.6972 7.56716 15.8946 7.62598 16.8359C7.65568 17.3113 7.68655 17.7105 7.68848 18.0352C7.69046 18.3705 7.65984 18.5697 7.60547 18.6729C7.44394 18.9786 7.30995 19.07 7.2373 19.0937C7.17727 19.1133 7.10824 19.102 7.01465 19.0352C6.91858 18.9665 6.82911 18.8598 6.75977 18.7588C6.72633 18.7101 6.69936 18.6658 6.68164 18.6348C6.67297 18.6195 6.66624 18.6074 6.66211 18.5996C6.66009 18.5958 6.65903 18.5924 6.6582 18.5908L6.65723 18.5898L6.63184 18.5391L6.58691 18.5039L5.41895 17.6045C2.73739 15.5337 0.438096 13.5737 0.259766 9.92285C0.0671128 6.01019 2.69984 3.09057 6.10547 1.4541Z" fill="url(#paint0_linear_0_282)"/>
<path d="M6.10547 1.4541C10.5817 -0.694947 14.1896 0.378292 16.6914 1.98828C17.9463 2.79587 18.9228 3.73961 19.5859 4.48242C19.7243 4.63745 19.8485 4.78387 19.959 4.91797C19.7001 4.82048 19.3938 4.72529 19.043 4.6543C17.8377 4.41041 16.1262 4.43811 14.0684 5.48633C9.59754 7.76184 8.13448 10.7731 7.71973 13.3955C7.51386 14.6972 7.56716 15.8946 7.62598 16.8359C7.65568 17.3113 7.68655 17.7105 7.68848 18.0352C7.69046 18.3705 7.65984 18.5697 7.60547 18.6729C7.44394 18.9786 7.30995 19.07 7.2373 19.0937C7.17727 19.1133 7.10824 19.102 7.01465 19.0352C6.91858 18.9665 6.82911 18.8598 6.75977 18.7588C6.72633 18.7101 6.69936 18.6658 6.68164 18.6348C6.67297 18.6195 6.66624 18.6074 6.66211 18.5996C6.66009 18.5958 6.65903 18.5924 6.6582 18.5908L6.65723 18.5898L6.63184 18.5391L6.58691 18.5039L5.41895 17.6045C2.73739 15.5337 0.438096 13.5737 0.259766 9.92285C0.0671128 6.01019 2.69984 3.09057 6.10547 1.4541Z" fill="url(#paint1_radial_0_282)"/>
<path d="M6.10547 1.4541C10.5817 -0.694947 14.1896 0.378292 16.6914 1.98828C17.9463 2.79587 18.9228 3.73961 19.5859 4.48242C19.7243 4.63745 19.8485 4.78387 19.959 4.91797C19.7001 4.82048 19.3938 4.72529 19.043 4.6543C17.8377 4.41041 16.1262 4.43811 14.0684 5.48633C9.59754 7.76184 8.13448 10.7731 7.71973 13.3955C7.51386 14.6972 7.56716 15.8946 7.62598 16.8359C7.65568 17.3113 7.68655 17.7105 7.68848 18.0352C7.69046 18.3705 7.65984 18.5697 7.60547 18.6729C7.44394 18.9786 7.30995 19.07 7.2373 19.0937C7.17727 19.1133 7.10824 19.102 7.01465 19.0352C6.91858 18.9665 6.82911 18.8598 6.75977 18.7588C6.72633 18.7101 6.69936 18.6658 6.68164 18.6348C6.67297 18.6195 6.66624 18.6074 6.66211 18.5996C6.66009 18.5958 6.65903 18.5924 6.6582 18.5908L6.65723 18.5898L6.63184 18.5391L6.58691 18.5039L5.41895 17.6045C2.73739 15.5337 0.438096 13.5737 0.259766 9.92285C0.0671128 6.01019 2.69984 3.09057 6.10547 1.4541Z" stroke="var(--stroke-0, #5E5E5E)" stroke-width="0.5"/>
</g>
<path id="Vector_3" d="M18.6223 29.0596C25.498 29.0596 31.0719 23.439 31.0719 16.5056C31.0719 9.5722 25.498 3.95157 18.6223 3.95157C11.7465 3.95157 6.17262 9.5722 6.17262 16.5056C6.17262 23.439 11.7465 29.0596 18.6223 29.0596Z" fill="var(--fill-0, #1C1C1C)"/>
<path id="Vector_4" d="M18.6218 4.46426C25.2102 4.46426 30.5592 9.8512 30.5593 16.5053C30.5593 23.1595 25.2103 28.5473 18.6218 28.5473C12.0335 28.547 6.68531 23.1594 6.68531 16.5053C6.68549 9.85135 12.0336 4.4645 18.6218 4.46426Z" fill="var(--fill-0, #E84645)" stroke="var(--stroke-0, #3B3B3B)" stroke-width="1.02564"/>
<path id="Vector_5" d="M18.6218 4.45157C25.2174 4.45157 30.5719 9.84422 30.572 16.5053C30.572 23.1665 25.2175 28.56 18.6218 28.56C12.0264 28.5597 6.67262 23.1663 6.67262 16.5053C6.67279 9.84437 12.0265 4.4518 18.6218 4.45157Z" fill="var(--fill-0, #FFEE00)" stroke="var(--stroke-0, #3B3B3B)"/>
<path id="Vector_6" d="M18.6797 5.73126C24.9395 5.73126 29.9688 10.6244 29.9688 16.6053C29.9687 22.5862 24.9395 27.4793 18.6797 27.4793C12.4199 27.4793 7.39068 22.5862 7.39063 16.6053C7.39063 10.6244 12.4199 5.73126 18.6797 5.73126Z" stroke="url(#paint2_linear_0_282)" stroke-width="1.5"/>
<g id="Ellipse 676" filter="url(#filter1_f_0_282)">
<path d="M25.0892 16.1679C23.9319 17.4809 23.769 14.8065 22.0184 13.2634C20.2678 11.7203 17.5924 11.8929 18.7498 10.58C19.9071 9.26702 22.2644 9.45358 24.015 10.9967C25.7655 12.5397 26.2465 14.855 25.0892 16.1679Z" fill="var(--fill-0, #FFFAA5)"/>
</g>
<path id="Vector_7" d="M20.0304 27.6232C25.677 26.8179 29.6258 21.757 28.8502 16.3195C26.3796 21.292 22.9371 23.5871 18.3474 23.5871C12.4837 23.5871 9.65855 20.8552 8.40197 19.2361C9.17753 24.6736 14.3837 28.4286 20.0304 27.6232Z" fill="url(#paint3_linear_0_282)"/>
<path id="Vector_8" d="M13.7493 0.351004C13.7493 0.351004 16.3611 0.702615 22.7164 4.2143C29.0717 7.72598 31.0082 9.41327 31.5103 16.1536C31.7713 19.6653 30.7274 18.7873 30.7274 18.7873C30.7274 18.7873 29.3349 18.261 29.1595 15.6273C28.984 12.9935 24.5454 13.4314 23.848 11.2377C23.1506 9.04396 20.4533 3.15946 13.7493 0.351004Z" fill="url(#paint4_linear_0_282)"/>
<g id="Ellipse 674" filter="url(#filter2_f_0_282)">
<ellipse cx="19.9254" cy="19.5113" rx="1.66056" ry="0.41514" fill="var(--fill-0, #FFDFDF)"/>
</g>
<g id="Ellipse 675" filter="url(#filter3_f_0_282)">
<ellipse cx="19.928" cy="14.5297" rx="5.81197" ry="5.39682" fill="var(--fill-0, white)" fill-opacity="0.1"/>
</g>
</g>
<defs>
<filter id="filter0_f_0_282" x="4.28571" y="1.85714" width="28.6667" height="29.4762" filterUnits="userSpaceOnUse" color-interpolation-filters="sRGB">
<feFlood flood-opacity="0" result="BackgroundImageFix"/>
<feBlend mode="normal" in="SourceGraphic" in2="BackgroundImageFix" result="shape"/>
<feGaussianBlur stdDeviation="1.5" result="effect1_foregroundBlur_0_282"/>
</filter>
<filter id="filter1_f_0_282" x="16.4684" y="7.70538" width="11.2512" height="10.8143" filterUnits="userSpaceOnUse" color-interpolation-filters="sRGB">
<feFlood flood-opacity="0" result="BackgroundImageFix"/>
<feBlend mode="normal" in="SourceGraphic" in2="BackgroundImageFix" result="shape"/>
<feGaussianBlur stdDeviation="0" result="effect1_foregroundBlur_0_282"/>
</filter>
<filter id="filter2_f_0_282" x="17.2392" y="18.0705" width="5.37241" height="2.88156" filterUnits="userSpaceOnUse" color-interpolation-filters="sRGB">
<feFlood flood-opacity="0" result="BackgroundImageFix"/>
<feBlend mode="normal" in="SourceGraphic" in2="BackgroundImageFix" result="shape"/>
<feGaussianBlur stdDeviation="0" result="effect1_foregroundBlur_0_282"/>
</filter>
<filter id="filter3_f_0_282" x="10.0135" y="5.03027" width="19.8291" height="18.9988" filterUnits="userSpaceOnUse" color-interpolation-filters="sRGB">
<feFlood flood-opacity="0" result="BackgroundImageFix"/>
<feBlend mode="normal" in="SourceGraphic" in2="BackgroundImageFix" result="shape"/>
<feGaussianBlur stdDeviation="0" result="effect1_foregroundBlur_0_282"/>
</filter>
<linearGradient id="paint0_linear_0_282" x1="4.56654" y1="2.49084" x2="12.4542" y2="16.6056" gradientUnits="userSpaceOnUse">
<stop stop-color="#4F4F4F"/>
<stop offset="1" stop-color="#BD7E18"/>
</linearGradient>
<radialGradient id="paint1_radial_0_282" cx="0" cy="0" r="1" gradientTransform="matrix(6.64225 7.47253 -8.03058 4.91943 4.1514 2.49044)" gradientUnits="userSpaceOnUse">
<stop stop-color="#C47C07"/>
<stop offset="1" stop-color="#5A4A05"/>
</radialGradient>
<linearGradient id="paint2_linear_0_282" x1="16.5299" y1="28.6443" x2="16.129" y2="6.22616" gradientUnits="userSpaceOnUse">
<stop stop-color="#FFFBB7"/>
<stop offset="1" stop-color="#FFF200"/>
</linearGradient>
<linearGradient id="paint3_linear_0_282" x1="15.287" y1="27.0296" x2="28.2922" y2="19.762" gradientUnits="userSpaceOnUse">
<stop stop-color="#F6EA07"/>
<stop offset="1" stop-color="#D7CD11"/>
</linearGradient>
<linearGradient id="paint4_linear_0_282" x1="36.9485" y1="17.8501" x2="23.664" y2="0.414249" gradientUnits="userSpaceOnUse">
<stop stop-color="#8D8246"/>
<stop offset="1"/>
</linearGradient>
</defs>
</svg>
