<svg preserveAspectRatio="none" width="100%" height="100%" overflow="visible" style="display: block;" viewBox="0 0 32.9524 31.3333" fill="none" xmlns="http://www.w3.org/2000/svg">
<g id="Group 5735">
<g id="Vector" filter="url(#filter0_f_0_295)">
<path d="M18.619 28.3333C24.8783 28.3333 29.9524 23.078 29.9524 16.5952C29.9524 10.1125 24.8783 4.85714 18.619 4.85714C12.3598 4.85714 7.28571 10.1125 7.28571 16.5952C7.28571 23.078 12.3598 28.3333 18.619 28.3333Z" fill="var(--fill-0, #FF0807)"/>
</g>
<g id="Vector_2">
<path d="M6.1084 1.45996C10.5822 -0.687889 14.1881 0.384072 16.6885 1.99316C17.9427 2.8003 18.9182 3.74385 19.5811 4.48633C19.7134 4.63453 19.8327 4.77511 19.9395 4.9043C19.685 4.80964 19.3862 4.71656 19.0449 4.64746C17.8383 4.40325 16.1247 4.43152 14.0654 5.48047C9.59274 7.75694 8.12894 10.7701 7.71387 13.3945C7.5079 14.6968 7.5613 15.8946 7.62012 16.8359C7.64983 17.3115 7.67971 17.7107 7.68164 18.0352C7.68362 18.3707 7.6532 18.5684 7.59961 18.6699C7.4384 18.975 7.30567 19.0639 7.23535 19.0869C7.17795 19.1057 7.1112 19.0964 7.01855 19.0303C6.92329 18.9622 6.83384 18.8557 6.76465 18.7549C6.73138 18.7064 6.70513 18.6628 6.6875 18.6318C6.67878 18.6165 6.6721 18.6045 6.66797 18.5967C6.66592 18.5928 6.66489 18.5895 6.66406 18.5879L6.66309 18.5869L6.63672 18.5352L6.59082 18.499L5.42285 17.5986C2.74149 15.5279 0.444796 13.5705 0.266602 9.92285C0.0740365 6.01365 2.70401 3.09583 6.1084 1.45996Z" fill="url(#paint0_linear_0_295)"/>
<path d="M6.1084 1.45996C10.5822 -0.687889 14.1881 0.384072 16.6885 1.99316C17.9427 2.8003 18.9182 3.74385 19.5811 4.48633C19.7134 4.63453 19.8327 4.77511 19.9395 4.9043C19.685 4.80964 19.3862 4.71656 19.0449 4.64746C17.8383 4.40325 16.1247 4.43152 14.0654 5.48047C9.59274 7.75694 8.12894 10.7701 7.71387 13.3945C7.5079 14.6968 7.5613 15.8946 7.62012 16.8359C7.64983 17.3115 7.67971 17.7107 7.68164 18.0352C7.68362 18.3707 7.6532 18.5684 7.59961 18.6699C7.4384 18.975 7.30567 19.0639 7.23535 19.0869C7.17795 19.1057 7.1112 19.0964 7.01855 19.0303C6.92329 18.9622 6.83384 18.8557 6.76465 18.7549C6.73138 18.7064 6.70513 18.6628 6.6875 18.6318C6.67878 18.6165 6.6721 18.6045 6.66797 18.5967C6.66592 18.5928 6.66489 18.5895 6.66406 18.5879L6.66309 18.5869L6.63672 18.5352L6.59082 18.499L5.42285 17.5986C2.74149 15.5279 0.444796 13.5705 0.266602 9.92285C0.0740365 6.01365 2.70401 3.09583 6.1084 1.45996Z" fill="url(#paint1_radial_0_295)"/>
<path d="M6.1084 1.45996C10.5822 -0.687889 14.1881 0.384072 16.6885 1.99316C17.9427 2.8003 18.9182 3.74385 19.5811 4.48633C19.7134 4.63453 19.8327 4.77511 19.9395 4.9043C19.685 4.80964 19.3862 4.71656 19.0449 4.64746C17.8383 4.40325 16.1247 4.43152 14.0654 5.48047C9.59274 7.75694 8.12894 10.7701 7.71387 13.3945C7.5079 14.6968 7.5613 15.8946 7.62012 16.8359C7.64983 17.3115 7.67971 17.7107 7.68164 18.0352C7.68362 18.3707 7.6532 18.5684 7.59961 18.6699C7.4384 18.975 7.30567 19.0639 7.23535 19.0869C7.17795 19.1057 7.1112 19.0964 7.01855 19.0303C6.92329 18.9622 6.83384 18.8557 6.76465 18.7549C6.73138 18.7064 6.70513 18.6628 6.6875 18.6318C6.67878 18.6165 6.6721 18.6045 6.66797 18.5967C6.66592 18.5928 6.66489 18.5895 6.66406 18.5879L6.66309 18.5869L6.63672 18.5352L6.59082 18.499L5.42285 17.5986C2.74149 15.5279 0.444796 13.5705 0.266602 9.92285C0.0740365 6.01365 2.70401 3.09583 6.1084 1.45996Z" stroke="var(--stroke-0, #5E5E5E)" stroke-width="0.51282"/>
</g>

<path id="Vector_4" d="M18.6218 4.46426C25.2102 4.46426 30.5592 9.8512 30.5593 16.5053C30.5593 23.1595 25.2103 28.5473 18.6218 28.5473C12.0335 28.547 6.68531 23.1594 6.68531 16.5053C6.68549 9.85135 12.0336 4.4645 18.6218 4.46426Z" fill="var(--fill-0, #E84645)" stroke="var(--stroke-0, #3B3B3B)" stroke-width="1.02564"/>
<path id="Vector_5" d="M18.6218 4.46426C25.2102 4.46426 30.5592 9.8512 30.5593 16.5053C30.5593 23.1595 25.2103 28.5473 18.6218 28.5473C12.0335 28.547 6.68531 23.1594 6.68531 16.5053C6.68549 9.85135 12.0336 4.4645 18.6218 4.46426Z" fill="var(--fill-0, #FF2322)" stroke="var(--stroke-0, #4F4F4F)" stroke-width="1.02564"/>
<path id="Vector_6" d="M18.6797 5.75079C24.9295 5.75079 29.9492 10.6356 29.9492 16.6053C29.9492 22.5749 24.9295 27.4598 18.6797 27.4598C12.4299 27.4598 7.41021 22.5749 7.41016 16.6053C7.41016 10.6356 12.4299 5.75079 18.6797 5.75079Z" stroke="url(#paint2_linear_0_295)" stroke-width="1.53846"/>
<g id="Ellipse 672" filter="url(#filter1_f_0_295)">
<path d="M25.1506 16.2631C23.9636 17.6098 23.7965 14.8668 22.0011 13.2841C20.2056 11.7015 17.4616 11.8785 18.6486 10.5319C19.8356 9.1853 22.2533 9.37664 24.0488 10.9593C25.8443 12.5419 26.3376 14.9165 25.1506 16.2631Z" fill="var(--fill-0, #FF8888)"/>
</g>
<path id="Vector_7" d="M20.0304 27.6233C25.677 26.8179 29.6258 21.757 28.8502 16.3195C26.3796 21.292 22.9371 23.5871 18.3474 23.5871C12.4837 23.5871 9.65855 20.8552 8.40197 19.2361C9.17753 24.6736 14.3837 28.4286 20.0304 27.6233Z" fill="url(#paint3_linear_0_295)"/>
<path id="Vector_8" d="M13.7493 0.351004C13.7493 0.351004 16.3611 0.702615 22.7164 4.2143C29.0717 7.72598 31.0082 9.41327 31.5103 16.1536C31.7713 19.6653 30.7274 18.7873 30.7274 18.7873C30.7274 18.7873 29.3349 18.261 29.1595 15.6273C28.984 12.9935 24.5454 13.4314 23.848 11.2377C23.1506 9.04396 20.4533 3.15946 13.7493 0.351004Z" fill="url(#paint4_linear_0_295)"/>
<g id="Ellipse 674" filter="url(#filter2_f_0_295)">
<ellipse cx="19.9254" cy="19.5113" rx="1.66056" ry="0.41514" fill="var(--fill-0, #FFDFDF)"/>
</g>
<g id="Ellipse 675" filter="url(#filter3_f_0_295)">
<ellipse cx="19.928" cy="14.5297" rx="5.81197" ry="5.39682" fill="var(--fill-0, white)" fill-opacity="0.1"/>
</g>
</g>
<defs>
<filter id="filter0_f_0_295" x="4.28571" y="1.85714" width="28.6667" height="29.4762" filterUnits="userSpaceOnUse" color-interpolation-filters="sRGB">
<feFlood flood-opacity="0" result="BackgroundImageFix"/>
<feBlend mode="normal" in="SourceGraphic" in2="BackgroundImageFix" result="shape"/>
<feGaussianBlur stdDeviation="1.5" result="effect1_foregroundBlur_0_295"/>
</filter>
<filter id="filter1_f_0_295" x="16.3088" y="7.58361" width="11.5397" height="11.0916" filterUnits="userSpaceOnUse" color-interpolation-filters="sRGB">
<feFlood flood-opacity="0" result="BackgroundImageFix"/>
<feBlend mode="normal" in="SourceGraphic" in2="BackgroundImageFix" result="shape"/>
<feGaussianBlur stdDeviation="0" result="effect1_foregroundBlur_0_295"/>
</filter>
<filter id="filter2_f_0_295" x="17.2392" y="18.0705" width="5.37241" height="2.88156" filterUnits="userSpaceOnUse" color-interpolation-filters="sRGB">
<feFlood flood-opacity="0" result="BackgroundImageFix"/>
<feBlend mode="normal" in="SourceGraphic" in2="BackgroundImageFix" result="shape"/>
<feGaussianBlur stdDeviation="0" result="effect1_foregroundBlur_0_295"/>
</filter>
<filter id="filter3_f_0_295" x="10.0135" y="5.03027" width="19.8291" height="18.9988" filterUnits="userSpaceOnUse" color-interpolation-filters="sRGB">
<feFlood flood-opacity="0" result="BackgroundImageFix"/>
<feBlend mode="normal" in="SourceGraphic" in2="BackgroundImageFix" result="shape"/>
<feGaussianBlur stdDeviation="0" result="effect1_foregroundBlur_0_295"/>
</filter>
<linearGradient id="paint0_linear_0_295" x1="4.56654" y1="2.49084" x2="12.4542" y2="16.6056" gradientUnits="userSpaceOnUse">
<stop stop-color="#4F4F4F"/>
<stop offset="1" stop-color="#BD1818"/>
</linearGradient>
<radialGradient id="paint1_radial_0_295" cx="0" cy="0" r="1" gradientTransform="matrix(7.47253 8.30281 -8.93817 5.55157 3.32112 -0.000405526)" gradientUnits="userSpaceOnUse">
<stop stop-color="#B40807"/>
<stop offset="1" stop-color="#560505"/>
</radialGradient>
<linearGradient id="paint2_linear_0_295" x1="16.5299" y1="28.6443" x2="16.129" y2="6.22616" gradientUnits="userSpaceOnUse">
<stop stop-color="#FF8E8E"/>
<stop offset="1" stop-color="#FF2322"/>
</linearGradient>
<linearGradient id="paint3_linear_0_295" x1="15.287" y1="27.0296" x2="28.2922" y2="19.762" gradientUnits="userSpaceOnUse">
<stop stop-color="#D40100"/>
<stop offset="1" stop-color="#FF2322"/>
</linearGradient>
<linearGradient id="paint4_linear_0_295" x1="36.9485" y1="17.8501" x2="23.664" y2="0.414249" gradientUnits="userSpaceOnUse">
<stop stop-color="#7B2121"/>
<stop offset="1" stop-color="#0E0E0E"/>
</linearGradient>
</defs>
</svg>
